<?xml version="1.0" encoding="UTF-8"?>
<svg width="520px" height="410px" viewBox="0 0 520 410" version="1.1" xmlns="http://www.w3.org/2000/svg" xmlns:xlink="http://www.w3.org/1999/xlink">
    <!-- Generator: Sketch 52.5 (67469) - http://www.bohemiancoding.com/sketch -->
    <title>Artboard</title>
    <desc>Created with Sketch.</desc>
    <defs>
        <polygon id="path-1" points="0.217750548 0.0180561843 74.2353291 0.0180561843 74.2353291 10.5029758 0.217750548 10.5029758"></polygon>
        <polygon id="path-3" points="0.176061813 0.0180561843 74.1935129 0.0180561843 74.1935129 10.5029758 0.176061813 10.5029758"></polygon>
        <polygon id="path-5" points="0.230311409 0.0564190879 11.1471584 0.0564190879 11.1471584 8.14398054 0.230311409 8.14398054"></polygon>
        <path d="M0.673806296,0.135730765 C0.635295385,0.680000359 1.89107427,50.0574522 0.092372326,72.3778917 C0.0552079499,72.8367909 0.434123002,73.2749535 1.03898669,73.2679516 C5.27195526,74.9465425 17.0180526,76.5217196 23.6114976,74.1467005 C24.2712999,73.691033 23.9567493,72.8203632 23.9567493,72.8203632 C30.7055845,74.3069382 40.2064688,73.4373457 44.0298213,71.9214162 C44.6344156,71.9284182 45.0079446,71.4907942 44.9761663,71.0313563 C43.7034211,52.5447723 43.9886173,1.19006796 43.9145578,0.135730765" id="path-7"></path>
        <path d="M0.673806296,0.135730765 C0.635295385,0.680000359 1.89107427,50.0574522 0.092372326,72.3778917 C0.0552079499,72.8367909 0.434123002,73.2749535 1.03898669,73.2679516 C5.27195526,74.9465425 17.0180526,76.5217196 23.6114976,74.1467005 C24.2712999,73.691033 23.9567493,72.8203632 23.9567493,72.8203632 C30.7055845,74.3069382 40.2064688,73.4373457 44.0298213,71.9214162 C44.6344156,71.9284182 45.0079446,71.4907942 44.9761663,71.0313563 C43.7034211,52.5447723 43.9886173,1.19006796 43.9145578,0.135730765" id="path-9"></path>
        <path d="M0.673806296,0.135730765 C0.635295385,0.680000359 1.89107427,50.0574522 0.092372326,72.3778917 C0.0552079499,72.8367909 0.434123002,73.2749535 1.03898669,73.2679516 C5.27195526,74.9465425 17.0180526,76.5217196 23.6114976,74.1467005 C24.2712999,73.691033 23.9567493,72.8203632 23.9567493,72.8203632 C30.7055845,74.3069382 40.2064688,73.4373457 44.0298213,71.9214162 C44.6344156,71.9284182 45.0079446,71.4907942 44.9761663,71.0313563 C43.7034211,52.5447723 43.9886173,1.19006796 43.9145578,0.135730765" id="path-11"></path>
        <path d="M37.2826019,2.12779518 C36.8193937,4.13682595 38.5704283,12.2731312 38.2486063,13.2140901 C37.8029031,14.5167285 37.5562179,14.81539 35.2358681,15.3733943 C34.5267826,13.5426448 32.9235976,11.352909 30.9735451,10.3492015 C29.0851639,9.37673366 16.613284,10.1892331 15.1563328,11.571317 C14.853093,11.858937 12.7021374,15.215311 12.7274523,17.140318 C10.4690432,16.8925555 8.78210365,16.459779 8.09052308,15.8172123 C6.17386465,14.0376312 6.57782526,9.6942467 6.84336203,5.37294541 C6.97613042,3.21687299 2.13425855,0.979739131 0.843739059,5.09098091 C0.361410092,6.62737776 -1.24716105,26.3250357 2.42349435,32.9316768 C6.99498191,41.1606237 21.2534449,43.185005 30.4968715,41.6801171 C57.2592619,37.3229979 42.0727668,2.55276174 40.5824214,0.715548893 C40.2309757,0.282503119 39.7338348,0.0280079356 39.2253831,0.0280079356 C38.4398144,0.0277386285 37.6273149,0.634756771 37.2826019,2.12779518" id="path-13"></path>
        <path d="M37.2826019,2.12779518 C36.8193937,4.13682595 38.5704283,12.2731312 38.2486063,13.2140901 C37.8029031,14.5167285 37.5562179,14.81539 35.2358681,15.3733943 C34.5267826,13.5426448 32.9235976,11.352909 30.9735451,10.3492015 C29.0851639,9.37673366 16.613284,10.1892331 15.1563328,11.571317 C14.853093,11.858937 12.7021374,15.215311 12.7274523,17.140318 C10.4690432,16.8925555 8.78210365,16.459779 8.09052308,15.8172123 C6.17386465,14.0376312 6.57782526,9.6942467 6.84336203,5.37294541 C6.97613042,3.21687299 2.13425855,0.979739131 0.843739059,5.09098091 C0.361410092,6.62737776 -1.24716105,26.3250357 2.42349435,32.9316768 C6.99498191,41.1606237 21.2534449,43.185005 30.4968715,41.6801171 C57.2592619,37.3229979 42.0727668,2.55276174 40.5824214,0.715548893 C40.2309757,0.282503119 39.7338348,0.0280079356 39.2253831,0.0280079356 C38.4398144,0.0277386285 37.6273149,0.634756771 37.2826019,2.12779518" id="path-15"></path>
        <path d="M37.2826019,2.12779518 C36.8193937,4.13682595 38.5704283,12.2731312 38.2486063,13.2140901 C37.8029031,14.5167285 37.5562179,14.81539 35.2358681,15.3733943 C34.5267826,13.5426448 32.9235976,11.352909 30.9735451,10.3492015 C29.0851639,9.37673366 16.613284,10.1892331 15.1563328,11.571317 C14.853093,11.858937 12.7021374,15.215311 12.7274523,17.140318 C10.4690432,16.8925555 8.78210365,16.459779 8.09052308,15.8172123 C6.17386465,14.0376312 6.57782526,9.6942467 6.84336203,5.37294541 C6.97613042,3.21687299 2.13425855,0.979739131 0.843739059,5.09098091 C0.361410092,6.62737776 -1.24716105,26.3250357 2.42349435,32.9316768 C6.99498191,41.1606237 21.2534449,43.185005 30.4968715,41.6801171 C57.2592619,37.3229979 42.0727668,2.55276174 40.5824214,0.715548893 C40.2309757,0.282503119 39.7338348,0.0280079356 39.2253831,0.0280079356 C38.4398144,0.0277386285 37.6273149,0.634756771 37.2826019,2.12779518" id="path-17"></path>
        <path d="M37.2826019,2.12779518 C36.8193937,4.13682595 38.5704283,12.2731312 38.2486063,13.2140901 C37.8029031,14.5167285 37.5562179,14.81539 35.2358681,15.3733943 C34.5267826,13.5426448 32.9235976,11.352909 30.9735451,10.3492015 C29.0851639,9.37673366 16.613284,10.1892331 15.1563328,11.571317 C14.853093,11.858937 12.7021374,15.215311 12.7274523,17.140318 C10.4690432,16.8925555 8.78210365,16.459779 8.09052308,15.8172123 C6.17386465,14.0376312 6.57782526,9.6942467 6.84336203,5.37294541 C6.97613042,3.21687299 2.13425855,0.979739131 0.843739059,5.09098091 C0.361410092,6.62737776 -1.24716105,26.3250357 2.42349435,32.9316768 C6.99498191,41.1606237 21.2534449,43.185005 30.4968715,41.6801171 C57.2592619,37.3229979 42.0727668,2.55276174 40.5824214,0.715548893 C40.2309757,0.282503119 39.7338348,0.0280079356 39.2253831,0.0280079356 C38.4398144,0.0277386285 37.6273149,0.634756771 37.2826019,2.12779518" id="path-19"></path>
        <path d="M37.2826019,2.12779518 C36.8193937,4.13682595 38.5704283,12.2731312 38.2486063,13.2140901 C37.8029031,14.5167285 37.5562179,14.81539 35.2358681,15.3733943 C34.5267826,13.5426448 32.9235976,11.352909 30.9735451,10.3492015 C29.0851639,9.37673366 16.613284,10.1892331 15.1563328,11.571317 C14.853093,11.858937 12.7021374,15.215311 12.7274523,17.140318 C10.4690432,16.8925555 8.78210365,16.459779 8.09052308,15.8172123 C6.17386465,14.0376312 6.57782526,9.6942467 6.84336203,5.37294541 C6.97613042,3.21687299 2.13425855,0.979739131 0.843739059,5.09098091 C0.361410092,6.62737776 -1.24716105,26.3250357 2.42349435,32.9316768 C6.99498191,41.1606237 21.2534449,43.185005 30.4968715,41.6801171 C57.2592619,37.3229979 42.0727668,2.55276174 40.5824214,0.715548893 C40.2309757,0.282503119 39.7338348,0.0280079356 39.2253831,0.0280079356 C38.4398144,0.0277386285 37.6273149,0.634756771 37.2826019,2.12779518" id="path-21"></path>
        <path d="M37.2826019,2.12779518 C36.8193937,4.13682595 38.5704283,12.2731312 38.2486063,13.2140901 C37.8029031,14.5167285 37.5562179,14.81539 35.2358681,15.3733943 C34.5267826,13.5426448 32.9235976,11.352909 30.9735451,10.3492015 C29.0851639,9.37673366 16.613284,10.1892331 15.1563328,11.571317 C14.853093,11.858937 12.7021374,15.215311 12.7274523,17.140318 C10.4690432,16.8925555 8.78210365,16.459779 8.09052308,15.8172123 C6.17386465,14.0376312 6.57782526,9.6942467 6.84336203,5.37294541 C6.97613042,3.21687299 2.13425855,0.979739131 0.843739059,5.09098091 C0.361410092,6.62737776 -1.24716105,26.3250357 2.42349435,32.9316768 C6.99498191,41.1606237 21.2534449,43.185005 30.4968715,41.6801171 C57.2592619,37.3229979 42.0727668,2.55276174 40.5824214,0.715548893 C40.2309757,0.282503119 39.7338348,0.0280079356 39.2253831,0.0280079356 C38.4398144,0.0277386285 37.6273149,0.634756771 37.2826019,2.12779518" id="path-23"></path>
        <polygon id="path-25" points="0.259456806 0.158352559 37.68221 0.158352559 37.68221 35.1416645 0.259456806 35.1416645"></polygon>
    </defs>
    <g id="Artboard" stroke="none" stroke-width="1" fill="none" fill-rule="evenodd">
        <g id="illo" transform="translate(2.000000, 8.000000)">
            <g id="Group-141" transform="translate(9.695055, 14.383691)">
                <g id="Group-3" transform="translate(0.000000, 374.067524)">
                    <mask id="mask-2" fill="white">
                        <use xlink:href="#path-1"></use>
                    </mask>
                    <g id="Clip-2"></g>
                    <path d="M73.4800039,4.99069095 C75.1397434,3.3172168 73.9222062,2.15030925 71.2124384,1.48054256 C63.8913256,-0.32973958 25.7706401,-0.676068476 6.50118046,1.68494663 C3.71654533,2.02588939 0.299846495,2.928876 0.219054373,4.87704337 C0.0388879413,9.24197241 18.5820264,10.1840085 23.939352,10.3170462 C35.5268275,10.6057434 67.165561,11.3573795 73.4800039,4.99069095" id="Fill-1" fill="#F4F6F9" mask="url(#mask-2)"></path>
                </g>
                <g id="Group-6" transform="translate(417.425963, 374.067524)">
                    <mask id="mask-4" fill="white">
                        <use xlink:href="#path-3"></use>
                    </mask>
                    <g id="Clip-5"></g>
                    <path d="M73.4383152,4.99069095 C75.0977854,3.3172168 73.8805174,2.15030925 71.1704804,1.48054256 C63.8496369,-0.32973958 25.7289514,-0.676068476 6.45949173,1.68494663 C3.67458729,2.02588939 0.25815776,2.928876 0.177365638,4.87704337 C-0.00280079356,9.24197241 18.5403377,10.1840085 23.8976633,10.3170462 C35.4848694,10.6057434 67.1238723,11.3573795 73.4383152,4.99069095" id="Fill-4" fill="#F4F6F9" mask="url(#mask-4)"></path>
                </g>
                <path d="M320.722695,159.5419 C307.888058,159.5419 292.551828,159.434985 274.252682,159.307064 C247.035701,159.117202 213.163604,158.880751 171.133118,158.880751 C165.451547,158.880751 161.520741,157.545796 159.482087,150.900913 C157.638949,144.892672 157.290466,134.387542 157.292351,117.103414 C157.292351,116.285528 157.955385,115.622494 158.77354,115.622494 C159.591695,115.622494 160.254729,116.285798 160.254729,117.103953 C160.252843,133.701078 160.589477,144.409805 162.31412,150.032128 C163.849978,155.03747 166.381464,155.918373 171.133118,155.918373 C213.173838,155.918373 247.05186,156.154825 274.273149,156.344955 C349.444832,156.868758 374.767777,157.046231 380.949451,150.907376 C382.206307,149.659407 382.742498,148.057569 382.742498,145.551397 C382.742498,144.094177 382.743844,142.659578 382.746268,141.246524 C382.747345,140.429446 383.410379,139.767759 384.227457,139.767759 L384.229611,139.767759 C385.047766,139.769105 385.709723,140.433486 385.708646,141.251371 C385.706222,142.66254 385.704875,144.095793 385.704875,145.551397 C385.704875,147.615636 385.428297,150.634838 383.03685,153.009318 C379.353807,156.666777 371.638967,158.301202 354.571901,159.038565 C345.920141,159.412632 334.833577,159.5419 320.722695,159.5419" id="Fill-7" fill="#ECE9F4"></path>
                <path d="M384.695755,109.901039 L384.678788,109.901039 C383.860634,109.891613 383.20514,109.221308 383.214297,108.403153 L383.280815,102.669605 C383.635224,72.3841396 383.781996,59.8487033 380.058018,56.0972558 C378.53751,54.5651678 376.094895,54.2673142 372.381958,54.2915518 C323.905339,54.5045737 282.887178,54.8118531 249.92884,55.059077 C123.425344,56.0075765 93.3679812,56.2327172 85.3800641,48.3045863 C83.0785659,46.0200544 82.7834053,43.1807499 82.7834053,40.9624676 C82.7834053,40.8787131 82.7904073,40.7952279 82.8044112,40.7128199 C83.0920312,39.0318052 82.9630331,35.9038035 82.8135677,32.2818927 C82.4230724,22.8119788 81.8882286,9.84268876 87.7375782,3.74692317 C89.8809932,1.51355961 92.6987531,0.38112337 96.1127589,0.38112337 C96.1542322,0.38112337 96.1954361,0.383008519 96.2366401,0.386509511 C100.14644,0.714525526 103.934513,0.880149376 108.157787,0.906272162 C108.975942,0.911388996 109.634936,1.57873192 109.629819,2.39688681 C109.624703,3.21181001 108.962477,3.86864996 108.148631,3.86864996 L108.139474,3.86864996 C103.860454,3.84198856 100.017711,3.67528749 96.0524341,3.34377048 C93.4689713,3.3561586 91.4478218,4.1595016 89.8750684,5.79796583 C84.9001589,10.9823963 85.4048403,23.2226721 85.7735217,32.1598966 C85.9326822,36.0196056 86.0589872,39.0862052 85.7460524,41.0804241 C85.7616722,43.518461 86.2636606,45.0077291 87.4669246,46.202106 C91.0128908,49.7214108 101.411376,51.3733404 124.554548,52.0940061 C148.957809,52.8534521 186.954613,52.5685252 249.906488,52.0966992 C282.86725,51.8497446 323.887564,51.5421959 372.369031,51.329174 C376.756582,51.3146315 379.918517,51.7517168 382.160498,54.0101259 C386.758916,58.6424769 386.628841,69.7454689 386.242924,102.704346 L386.176674,108.436816 C386.167518,109.248777 385.5061,109.901039 384.695755,109.901039" id="Fill-9" fill="#ECE9F4"></path>
                <path d="M320.019184,256.852483 C320.019184,288.527842 319.001203,290.266758 322.881649,292.507123 C350.312998,308.344803 351.309972,310.095837 355.190418,307.855472 C382.622037,292.017792 384.636723,292.029911 384.636723,287.54918 C384.636723,255.87409 385.654973,254.134905 381.774527,251.894809 C354.342909,236.057129 353.345934,234.306094 349.465758,236.54646 C322.03387,252.38387 320.019184,252.371751 320.019184,256.852483" id="Fill-11" fill="#EDF0F4"></path>
                <path d="M359.289352,240.274074 C359.044552,240.274074 358.796251,240.21321 358.56734,240.08529 C354.854942,238.008124 353.05247,237.236021 351.915994,237.236021 C351.794806,237.236021 351.680081,237.244908 351.566164,237.262951 C350.756897,237.393565 349.999066,236.841486 349.870068,236.033565 C349.741609,235.225643 350.292072,234.466467 351.099724,234.337469 C351.366069,234.295187 351.640762,234.273643 351.915994,234.273643 C353.680763,234.273643 355.648321,235.057596 360.013789,237.499942 C360.727722,237.899593 360.982755,238.801772 360.583373,239.515974 C360.311911,240.000727 359.808307,240.274074 359.289352,240.274074 Z M337.588319,244.817823 C337.072327,244.817823 336.571146,244.547708 336.298608,244.066725 C335.895186,243.355216 336.145103,242.451152 336.856612,242.047999 C338.787544,240.952997 341.38528,239.478271 344.355198,237.776789 C345.064822,237.369866 345.969963,237.615744 346.376886,238.325637 C346.783271,239.035261 346.537663,239.940672 345.828038,240.347056 C342.852734,242.05177 340.251497,243.52865 338.317603,244.62473 C338.086807,244.755882 337.835812,244.817823 337.588319,244.817823 Z M372.855427,248.187393 C372.600932,248.187393 372.343205,248.121951 372.107831,247.983797 C370.329057,246.941309 368.707829,245.987693 367.227448,245.116754 L364.658528,243.606749 C363.953212,243.192555 363.71703,242.28499 364.131224,241.579674 C364.545688,240.87409 365.453522,240.637908 366.158837,241.052102 L368.729373,242.563453 C370.208408,243.433315 371.828559,244.386662 373.605716,245.428073 C374.311301,245.841728 374.548291,246.749024 374.134636,247.454878 C373.859134,247.925088 373.363879,248.187393 372.855427,248.187393 Z M324.029785,252.718484 C323.549342,252.718484 323.078054,252.484995 322.792858,252.054104 C322.342038,251.37168 322.529206,250.452804 323.211361,250.001445 C324.966974,248.841001 327.381581,247.432256 330.708331,245.535526 C331.418494,245.130219 332.323366,245.377981 332.728673,246.088952 C333.133711,246.799384 332.885948,247.703987 332.175247,248.109294 C328.991768,249.923885 326.527339,251.360369 324.845786,252.472607 C324.593984,252.638769 324.310403,252.718484 324.029785,252.718484 Z M384.453136,257.748871 C383.724122,257.748871 383.089096,257.210526 382.987567,256.468047 C382.67948,254.215024 382.165911,253.830992 381.034013,253.177384 C380.063161,252.616956 379.125434,252.074033 378.219485,251.548345 C377.512016,251.137921 377.271255,250.231434 377.681948,249.523964 C378.092372,248.816225 378.999129,248.576003 379.70633,248.986427 C380.610393,249.511037 381.546505,250.052883 382.515202,250.611964 C384.38931,251.693771 385.487275,252.88357 385.922745,256.066779 C386.033699,256.877124 385.466269,257.624182 384.655655,257.734867 C384.58752,257.744024 384.520194,257.748871 384.453136,257.748871 Z M319.995027,266.976678 L319.986678,266.976678 C319.168523,266.972369 318.50899,266.305565 318.513569,265.48741 C318.529996,262.47548 318.538076,259.650987 318.538076,256.852617 C318.538076,256.753512 318.538883,256.656292 318.540769,256.560958 C318.558812,255.743072 319.225347,255.096735 320.054005,255.112086 C320.871891,255.12986 321.520382,255.807167 321.502608,256.625053 C321.501261,256.699381 321.500453,256.775057 321.500453,256.852617 C321.500453,259.656642 321.492374,262.486252 321.475946,265.503838 C321.471368,266.31903 320.809142,266.976678 319.995027,266.976678 Z M384.711132,273.445973 L384.699013,273.445973 C383.880859,273.43924 383.223211,272.77082 383.229674,271.952665 L383.233444,271.507231 C383.256335,268.693511 383.275995,266.264091 383.275995,264.242673 L383.274648,263.326759 C383.272763,262.508604 383.934181,261.843685 384.752067,261.841531 L384.755837,261.841531 C385.572376,261.841531 386.235141,262.502141 386.237026,263.31868 L386.238373,264.242673 C386.238373,266.275941 386.218713,268.711285 386.195822,271.53093 L386.192052,271.976902 C386.185588,272.790479 385.523632,273.445973 384.711132,273.445973 Z M319.9005,282.690476 C319.085038,282.690476 318.422543,282.031213 318.419311,281.214943 C318.417965,280.874808 318.417426,280.522824 318.417426,280.15899 C318.417426,278.088019 318.438163,275.597197 318.461323,272.712919 L318.46267,272.554835 C318.469672,271.740989 319.131359,271.085765 319.943589,271.085765 L319.955977,271.085765 C320.773863,271.092767 321.43178,271.761187 321.425047,272.579073 L321.423701,272.737156 C321.400271,275.614972 321.379804,278.100137 321.379804,280.15899 C321.379804,280.518515 321.380342,280.866729 321.381689,281.203363 C321.384921,282.021787 320.72431,282.687245 319.906425,282.690476 L319.9005,282.690476 Z M384.636534,289.16031 L384.618221,289.16031 C383.800336,289.150076 383.145112,288.478963 383.155076,287.661077 L383.155615,287.558202 C383.155615,284.728862 383.163425,281.941803 383.179583,279.0279 C383.184161,278.212708 383.846387,277.55506 384.660503,277.55506 L384.668851,277.55506 C385.487006,277.559369 386.146539,278.226442 386.141961,279.044328 C386.125802,281.952575 386.117992,284.734517 386.117992,287.549315 C386.118262,287.593212 386.117992,287.645457 386.117454,287.697434 C386.107489,288.509125 385.446341,289.16031 384.636534,289.16031 Z M325.80398,295.680772 C325.55164,295.680772 325.295798,295.616139 325.06177,295.480408 C324.122966,294.9356 323.149959,294.372209 322.141135,293.789698 C320.288572,292.720818 319.199763,291.557142 318.752983,288.475192 C318.635565,287.665925 319.196801,286.914289 320.006338,286.796871 C320.815605,286.681069 321.567241,287.240689 321.684659,288.050226 C321.995978,290.198488 322.533246,290.595716 323.622054,291.22401 C324.633033,291.807867 325.608463,292.372335 326.548884,292.91822 C327.256353,293.329183 327.496845,294.235401 327.086421,294.942871 C326.811458,295.416582 326.314587,295.680772 325.80398,295.680772 Z M373.327792,298.99675 C372.813146,298.99675 372.312773,298.728251 372.039965,298.248885 C371.634658,297.538453 371.882151,296.633581 372.592583,296.228543 C375.777947,294.412067 378.241838,292.974236 379.914235,291.860382 C380.595043,291.406869 381.514727,291.591614 381.96824,292.272153 C382.421753,292.952961 382.237277,293.872375 381.556469,294.326158 C379.812975,295.48741 377.298724,296.955133 374.060307,298.801772 C373.828703,298.933733 373.576631,298.99675 373.327792,298.99675 Z M339.357936,303.619406 C339.103172,303.619406 338.845175,303.553695 338.609532,303.415272 C337.757175,302.915168 336.84961,302.380863 335.88172,301.811817 C334.446044,300.967001 332.877869,300.044355 331.162383,299.039032 C330.456529,298.625376 330.219808,297.71808 330.633464,297.012227 C331.047389,296.306642 331.954954,296.07046 332.660269,296.483307 C334.377371,297.489708 335.946623,298.413162 337.383915,299.258248 C338.350728,299.827293 339.257484,300.360521 340.109033,300.860625 C340.814349,301.27455 341.0508,302.182114 340.636606,302.887699 C340.360836,303.35764 339.866118,303.619406 339.357936,303.619406 Z M359.677963,306.756834 C359.164394,306.756834 358.665099,306.489412 358.391483,306.011661 C357.984829,305.301768 358.230706,304.396896 358.9406,303.990242 C361.891667,302.299532 364.504484,300.816458 366.451574,299.712569 C367.163353,299.309685 368.067147,299.559333 368.470569,300.270842 C368.873722,300.982621 368.623805,301.886415 367.912296,302.289837 C365.968168,303.391842 363.358852,304.8733 360.412902,306.560778 C360.181028,306.693816 359.92761,306.756834 359.677963,306.756834 Z M352.740343,310.128289 C351.006813,310.128289 348.992397,309.330332 344.756466,306.966085 C344.042263,306.567241 343.786422,305.665063 344.184996,304.950591 C344.58384,304.236119 345.485749,303.980008 346.200221,304.379122 C349.792777,306.384382 351.626489,307.165911 352.740343,307.165911 C352.887115,307.165911 353.025809,307.152446 353.16531,307.124976 C353.967306,306.968778 354.746411,307.490426 354.904225,308.293231 C355.06177,309.096035 354.538506,309.874332 353.735971,310.032146 C353.406339,310.09678 353.080747,310.128289 352.740343,310.128289 Z" id="Fill-13" fill="#ED3464"></path>
                <path d="M420.296103,276.578445 C416.588014,276.578714 412.476503,275.087561 408.042901,272.130569 C405.978931,270.754141 401.640664,267.38484 400.964703,265.8339 C400.4102,264.562232 400.768378,263.065693 401.842644,262.187752 C402.93226,261.296884 404.450614,261.248409 405.621291,262.069257 C405.944729,262.295744 406.211613,262.572861 406.41871,262.882833 C407.117023,263.593535 409.447068,265.760918 412.504242,267.632872 C415.192195,269.279146 419.042748,271.050648 422.116619,270.134734 C426.464851,268.840714 428.272709,262.110999 429.023268,256.693349 C429.258104,254.998869 430.82601,253.817149 432.516181,254.050639 C434.210661,254.285474 435.393727,255.849071 435.158891,257.543282 C434.33535,263.487428 432.829116,267.925339 430.554817,271.111511 C428.35808,274.188883 425.510696,275.987316 422.092112,276.457256 C421.504753,276.538049 420.905545,276.578445 420.296103,276.578445" id="Fill-15" fill="#B16D60"></path>
                <path d="M444.463262,249.328716 C444.463262,249.328716 425.578911,251.758674 424.862016,257.788729 C424.568741,260.255043 429.255222,263.326221 436.476961,267.075514 L444.463262,249.328716 Z" id="Fill-17" fill="#FBB41F"></path>
                <path d="M458.512446,316.339641 C457.177222,316.339641 455.944604,315.469241 455.544952,314.123783 C455.057775,312.484241 455.992271,310.760137 457.631543,310.27323 L498.251937,298.205041 C499.891209,297.718134 501.615851,298.652091 502.102759,300.291633 C502.590204,301.931443 501.655709,303.655278 500.016167,304.142454 L459.395774,316.210643 C459.10169,316.298168 458.804645,316.339641 458.512446,316.339641" id="Fill-19" fill="#B16D60"></path>
                <g id="Group-23" transform="translate(494.447786, 297.045701)">
                    <mask id="mask-6" fill="white">
                        <use xlink:href="#path-5"></use>
                    </mask>
                    <g id="Clip-22"></g>
                    <path d="M1.95333806,8.14398054 L8.91088629,6.12929433 C10.5539287,5.65315942 11.5000045,3.93578822 11.0241389,2.29274577 C10.5482733,0.649703313 8.83090209,-0.296372434 7.18785964,0.179493164 L0.230311409,2.19417938 L1.95333806,8.14398054 Z" id="Fill-21" fill="#88CBA2" mask="url(#mask-6)"></path>
                </g>
                <path d="M436.830076,377.723233 C435.119438,377.723233 433.733045,376.33684 433.733045,374.626202 L433.733045,337.217564 C433.733045,335.506926 435.119438,334.120533 436.830076,334.120533 C438.540715,334.120533 439.927108,335.506926 439.927108,337.217564 L439.927108,374.626202 C439.927108,376.33684 438.540715,377.723233 436.830076,377.723233" id="Fill-24" fill="#B16D60"></path>
                <path d="M433.733045,370.883776 L433.733045,378.127059 C433.733045,379.837698 435.119438,381.22409 436.830076,381.22409 C438.540715,381.22409 439.927108,379.837698 439.927108,378.127059 L439.927108,370.883776 L433.733045,370.883776 Z" id="Fill-26" fill="#88CBA2"></path>
                <path d="M488.163855,297.452894 C486.162635,291.677604 463.292001,307.149295 462.284792,298.927619 C461.153164,289.688232 460.202241,274.175337 460.202241,274.175337 C460.202241,274.175337 429.836791,273.696778 429.7595,274.013483 C428.320592,277.34939 427.686913,288.834529 427.397946,292.29674 C427.103593,295.820624 427.16338,303.011392 427.142374,306.539045 C427.134294,307.806673 427.114904,312.732569 427.062928,313.999928 C426.798738,319.98824 424.760083,353.780622 423.413279,359.698376 C423.336257,360.035818 423.716788,360.367335 424.254325,360.362218 C428.015467,361.613688 439.065675,362.788136 444.923912,361.017173 L444.923912,300.129806 C446.755738,305.93849 446.563184,311.342675 449.465506,317.025324 C451.291678,320.601183 455.132266,322.68562 459.127436,322.284083 C468.800408,321.311346 480.815543,314.770954 491.017972,314.394463 C495.27437,314.237457 491.268966,306.414356 488.163855,297.452894" id="Fill-28" fill="#2F5AA9"></path>
                <path d="M452.417273,177.95736 C444.08572,177.95736 442.13863,189.074356 429.012065,187.894521 C424.868776,187.52207 420.967863,187.784913 418.351006,192.304694 C416.256874,195.926605 418.427758,199.427327 419.727434,202.800937 C423.12205,211.600276 416.321238,210.632925 417.28078,217.951345 C418.565105,227.913283 427.707541,235.673097 436.152742,238.982342 C441.238875,240.974945 446.683726,241.466969 451.560877,241.245599 C461.688439,240.785892 471.334479,236.276345 478.293374,228.387533 C481.811063,224.399903 484.170193,220.066752 483.003016,216.719804 C481.84715,213.424832 478.735038,213.438297 482.613868,203.65114 C486.831216,193.008124 482.645107,188.845983 476.892977,188.845983 C470.296301,188.845983 465.603625,192.625169 460.627638,186.549871 C457.63025,182.687738 456.729149,178.03492 452.417273,177.95736" id="Fill-30" fill="#4A4E6A"></path>
                <path d="M439.077121,250.303392 C434.554916,251.740415 427.898184,262.226694 428.898929,276.567026 C428.99588,277.957997 460.852483,277.193973 460.969093,275.019318 C461.532214,264.515804 455.463917,251.34992 449.753799,250.299891 C449.209261,250.199978 439.680638,250.111646 439.077121,250.303392" id="Fill-32" fill="#FED46A"></path>
                <path d="M442.257772,204.955124 C424.918974,208.110326 421.388089,238.673986 442.251578,240.011365 C448.18145,240.389203 455.634254,236.695117 459.473496,231.383574 C466.009309,222.340781 459.380854,201.835741 442.257772,204.955124" id="Fill-34" fill="#B16D60"></path>
                <path d="M462.116017,215.817868 C455.697083,202.286803 453.432211,213.860813 441.167967,210.370324 C435.404795,208.730244 432.819448,207.856612 429.315224,216.749401 L423.388314,205.554306 L443.803944,197.353636 L458.837742,203.589711 L465.500399,211.533731 L462.116017,215.817868 Z" id="Fill-36" fill="#4A4E6A"></path>
                <path d="M448.766897,235.365522 C449.320323,241.706357 449.28262,245.579531 449.753638,250.299945 C449.79538,250.72168 447.104734,251.419993 445.660978,251.504825 C441.875329,251.726465 439.062955,250.688286 439.077228,250.303446 C439.183605,247.432633 440.209126,242.857914 440.669372,235.343708 C440.698726,234.861379 440.994964,234.463881 441.388422,234.473576 C447.917772,234.727264 448.682604,234.408673 448.766897,235.365522" id="Fill-38" fill="#B16D60"></path>
                <path d="M460.970681,272.260052 C454.409284,272.190301 438.823945,272.150175 428.818649,272.328994 C428.665952,273.915482 428.66649,275.913472 428.66649,278.235168 C439.643985,278.333734 449.772624,278.178075 460.739347,277.67851 C461.420694,275.232125 461.080828,273.31412 460.970681,272.260052" id="Fill-40" fill="#FEFEFE"></path>
                <path d="M442.520777,228.211514 C441.259881,228.211783 440.537061,227.620923 440.50259,227.592108 C440.401869,227.508084 440.33535,227.389858 440.315691,227.260052 C439.908229,224.579369 441.074867,221.253966 441.12442,221.113926 C441.224602,220.833577 441.532151,220.687613 441.81223,220.786718 C442.092579,220.886361 442.239082,221.194179 442.139708,221.474259 C442.128666,221.505498 441.084562,224.487266 441.34983,226.86417 C441.599478,226.999363 442.14267,227.213462 442.942781,227.10547 C443.232286,227.067228 443.508595,227.272171 443.548453,227.567331 C443.58831,227.861953 443.381213,228.133415 443.086591,228.173003 C442.887573,228.199934 442.69852,228.211514 442.520777,228.211514" id="Fill-42" fill="#9F5B4D"></path>
                <path d="M442.939711,232.567771 C442.695719,232.567771 442.451727,232.555383 442.208004,232.530337 C441.912305,232.500175 441.696859,232.235716 441.727291,231.939747 C441.757453,231.644048 442.018412,231.425371 442.317881,231.459034 C443.929684,231.624119 445.579728,231.140174 446.847357,230.131619 C447.079769,229.947144 447.418557,229.985116 447.60411,230.217798 C447.789393,230.450748 447.750613,230.789267 447.517931,230.97482 C446.223642,232.00465 444.58787,232.567771 442.939711,232.567771" id="Fill-44" fill="#823F31"></path>
                <path d="M431.863946,220.528641 C431.716096,220.528641 431.569324,220.468316 431.462948,220.349821 C431.26393,220.12872 431.282512,219.788046 431.503883,219.589298 C432.850956,218.37957 434.587987,217.644901 436.394768,217.52075 C436.685351,217.500821 436.948733,217.724616 436.968931,218.021123 C436.989398,218.317899 436.765335,218.575087 436.468558,218.595285 C434.900383,218.703277 433.392802,219.340727 432.223471,220.390756 C432.120596,220.483128 431.992136,220.528641 431.863946,220.528641" id="Fill-46" fill="#3F4163"></path>
                <path d="M454.610402,220.528641 C454.482212,220.528641 454.353753,220.483128 454.250877,220.390756 C453.081546,219.340727 451.574234,218.703277 450.006059,218.595285 C449.709283,218.575087 449.48522,218.317899 449.505687,218.021123 C449.525885,217.724346 449.78819,217.500552 450.07985,217.52075 C451.886631,217.644901 453.623392,218.37957 454.970466,219.589298 C455.191836,219.788046 455.210419,220.12872 455.011401,220.349821 C454.905024,220.468316 454.757983,220.528641 454.610402,220.528641" id="Fill-48" fill="#3F4163"></path>
                <path d="M429.935384,207.535113 C432.443441,204.056474 438.003016,199.659228 449.417058,202.506073 C460.715836,205.324641 464.284424,211.136557 465.388314,214.968527 C466.538524,218.961274 470.981283,199.167473 450.649407,195.830489 C429.904145,192.425909 427.245007,211.266363 429.935384,207.535113" id="Fill-50" fill="#88CBA2"></path>
                <path d="M433.511594,225.257027 C433.216164,225.257027 432.975942,225.019229 432.97298,224.723529 C432.959783,223.312899 433.839071,222.102364 434.97447,221.967441 C435.826827,221.867259 436.891397,222.408296 437.31394,224.234737 C437.380998,224.524511 437.200562,224.813747 436.910788,224.881074 C436.619667,224.947593 436.331777,224.767426 436.26472,224.477652 C436.044965,223.53023 435.604379,222.979227 435.101583,223.037128 C434.589091,223.097992 434.041321,223.756448 434.050208,224.713296 C434.052901,225.01088 433.814026,225.254064 433.516711,225.257027 L433.511594,225.257027 Z" id="Fill-52" fill="#823F31"></path>
                <path d="M447.749105,225.140794 C447.738332,225.140794 447.727291,225.140524 447.716518,225.139717 C447.419473,225.122212 447.193255,224.866908 447.211029,224.570132 C447.295591,223.152769 448.2484,221.993402 449.37949,221.930923 C449.793145,221.911263 451.168496,222.017101 451.574073,224.375962 C451.624703,224.669237 451.427839,224.947701 451.134564,224.998061 C450.841019,225.050845 450.562825,224.851558 450.512734,224.558552 C450.34334,223.574234 449.937225,222.966947 449.438737,223.006535 C448.929747,223.034812 448.344273,223.66526 448.286103,224.634227 C448.269137,224.920501 448.031877,225.140794 447.749105,225.140794" id="Fill-54" fill="#823F31"></path>
                <path d="M355.075666,268.020593 C350.388107,299.3472 349.12398,300.916183 352.630089,303.706204 C377.415765,323.428907 378.142625,325.308401 382.312037,323.666975 C411.785003,312.063341 413.77626,312.373313 414.439294,307.942135 C419.126853,276.615798 420.39098,275.046545 416.884871,272.256524 C392.099464,252.53382 391.372335,250.654596 387.203192,252.295753 C357.729688,263.899387 355.73897,263.589414 355.075666,268.020593" id="Fill-56" fill="#7463AB"></path>
                <path d="M438.520867,292.886765 C429.089195,292.887035 420.4746,289.867564 414.226137,284.364274 C412.94235,283.233992 412.818469,281.277207 413.94902,279.99342 C415.079302,278.709364 417.036356,278.585752 418.319874,279.716303 C423.811045,284.55225 431.259271,286.683816 438.50417,286.684085 C446.039651,286.684623 453.355378,284.379086 458.027586,280.413539 C462.315763,276.773315 466.111646,270.329605 459.841908,260.305188 C458.934882,258.854969 459.375468,256.944235 460.825417,256.037209 C462.275097,255.130722 464.186639,255.5705 465.093396,257.020719 C468.524368,262.506504 469.884369,267.864099 469.135156,272.943769 C468.454887,277.554575 465.999883,281.770577 462.035683,285.135569 C456.323949,289.984174 447.890329,292.808666 438.897089,292.88515 C438.77213,292.886227 438.645556,292.886765 438.520867,292.886765" id="Fill-58" fill="#B16D60"></path>
                <path d="M449.753934,250.303392 C449.753934,250.303392 468.638285,252.73335 469.355449,258.763405 C469.648725,261.229719 464.961974,264.300897 457.740505,268.05019 L449.753934,250.303392 Z" id="Fill-60" fill="#FED46A"></path>
                <g id="Group-76" transform="translate(437.354686, 250.455578)" fill="#F0BE61">
                    <path d="M2.73257808,5.74598957 C2.65474833,5.74598957 2.57664928,5.72929253 2.50339776,5.69482122 C1.20533767,5.0845714 0.425962997,4.2621076 0.186549009,3.24978231 C-0.168936327,1.74624092 0.842850346,0.437947162 0.886478092,0.383008519 C1.07068413,0.14924998 1.40893381,0.109123226 1.64269235,0.293059957 C1.87618158,0.476996688 1.91684695,0.815515678 1.73264091,1.04954352 C1.72671616,1.05735343 0.997163299,2.01500938 1.23630798,3.00875248 C1.38038726,3.60580626 1.85248256,4.12556891 2.6420909,4.55780676 C3.95280842,3.37958832 6.67873462,1.28599513 6.80315448,1.19092974 C7.00621202,1.03500094 7.29167751,1.04388808 7.48477069,1.212205 C7.58468361,1.29919118 9.7509897,3.18784168 10.9871092,4.41695916 C11.7010422,3.89100245 13.2748728,2.50460964 13.1512608,0.584180903 C13.13214,0.287404508 13.3572807,0.0312934819 13.6543264,0.0121726797 C13.9465246,-0.00829465785 14.2069445,0.218461898 14.2263346,0.515238292 C14.4277763,3.6491647 11.3221272,5.50226667 11.1896281,5.5795578 C10.9741824,5.70505489 10.7011051,5.6673519 10.5282099,5.48664686 C9.66373421,4.5820444 7.8547986,2.97266533 7.10908732,2.31582538 C6.2403027,2.98936237 3.99158864,4.74901478 3.10476045,5.59652414 C3.00242376,5.69482122 2.86830884,5.74598957 2.73257808,5.74598957" id="Fill-62"></path>
                    <path d="M7.19429608,21.1033331 C6.89778899,21.1033331 6.65702847,20.8636498 6.65568193,20.5671427 C6.65514332,20.4416456 6.5975116,7.94256578 6.5975116,2.31081627 C6.5975116,2.01323195 6.83881074,1.77220212 7.13612575,1.77220212 C7.43371006,1.77220212 7.67473989,2.01323195 7.67473989,2.31081627 C7.67473989,7.94014201 7.73237161,20.4365288 7.73291022,20.5622952 C7.73425676,20.8598795 7.49430416,21.1019866 7.19671984,21.1033331 L7.19429608,21.1033331 Z" id="Fill-64"></path>
                    <path d="M9.25985439,7.13251703 C9.11766026,7.13251703 8.94207205,7.07380809 8.79583831,6.84812876 L8.79341454,6.8494753 L8.75948185,6.78726537 C8.75813532,6.7848416 8.75651948,6.78241784 8.75517294,6.77972477 L8.75517294,6.77945546 C8.7535571,6.777301 8.75221056,6.77460793 8.75086403,6.77218417 L8.71693134,6.70970493 L8.71962441,6.70835839 C8.50498667,6.22818388 8.88578687,6.00304317 8.93210769,5.97772831 C8.9784285,5.95268275 9.37457921,5.75501136 9.66085263,6.19640565 L9.6635457,6.19505911 L9.69667047,6.25619182 L9.70151799,6.26480964 L9.70609621,6.27369678 L9.73949029,6.33482948 L9.73679722,6.33617602 C9.95170426,6.81635053 9.57063476,7.04149124 9.52431394,7.06680611 C9.50169215,7.07919423 9.39585447,7.13251703 9.25985439,7.13251703" id="Fill-66"></path>
                    <path d="M9.25985439,10.2742533 C9.11739095,10.2742533 8.94207205,10.2158137 8.795569,9.98986508 L8.79314524,9.99148092 L8.76002047,9.93034821 L8.75517294,9.92146108 L8.75032541,9.91284325 L8.71693134,9.85171055 L8.71962441,9.85036401 C8.50471736,9.3701895 8.88578687,9.14504879 8.93210769,9.11973392 C8.9784285,9.09414975 9.37484851,8.89701698 9.66058332,9.33814196 L9.66327639,9.33706473 L9.69720908,9.39927467 C9.69855562,9.40169843 9.70017146,9.40412219 9.70151799,9.40654596 L9.70151799,9.40681526 C9.70313384,9.40923903 9.70421106,9.4119321 9.7055576,9.41435586 L9.73949029,9.4768351 L9.73679722,9.47818164 C9.95143496,9.95835615 9.57063476,10.1834969 9.52431394,10.2088117 C9.50169215,10.2209305 9.39585447,10.2742533 9.25985439,10.2742533" id="Fill-68"></path>
                    <path d="M9.26750272,13.4159897 C9.076564,13.4159897 8.89155004,13.3144609 8.79406088,13.1348331 L8.71650044,12.9923696 C8.57430631,12.7308725 8.67071824,12.4039337 8.93221541,12.2617395 C9.19263535,12.120084 9.52038206,12.2159573 9.66257619,12.4774545 L9.74013663,12.619918 C9.7845723,12.7017873 9.80584755,12.7895814 9.80584755,12.8765676 C9.80584755,13.0675063 9.70404948,13.2527896 9.52442166,13.350548 C9.44282162,13.3949837 9.3544889,13.4159897 9.26750272,13.4159897" id="Fill-70"></path>
                    <path d="M9.26750272,16.5579953 C9.076564,16.5579953 8.89155004,16.4564665 8.79406088,16.2768387 L8.71650044,16.1343753 C8.57430631,15.8728781 8.67071824,15.5459393 8.93221541,15.4037452 C9.19263535,15.2618203 9.52038206,15.3576937 9.66257619,15.6194601 L9.74013663,15.7619236 C9.7845723,15.8437929 9.80584755,15.931587 9.80584755,16.0185732 C9.80584755,16.2095119 9.70404948,16.3947952 9.52442166,16.4925537 C9.44282162,16.5369893 9.3544889,16.5579953 9.26750272,16.5579953" id="Fill-72"></path>
                    <path d="M9.25985439,19.7000009 C9.11739095,19.7000009 8.94207205,19.6415613 8.795569,19.4156126 L8.79314524,19.4172285 L8.76002047,19.3560958 L8.75517294,19.3472086 L8.75032541,19.3385908 L8.71693134,19.2774581 L8.71962441,19.2761116 C8.50471736,18.7959371 8.88578687,18.5707963 8.93210769,18.5454815 C8.9784285,18.5198973 9.37484851,18.3227645 9.66058332,18.7638895 L9.66327639,18.7628123 L9.69720908,18.8250222 C9.69855562,18.827446 9.70017146,18.8298697 9.70151799,18.8322935 L9.70151799,18.8325628 C9.70313384,18.8349866 9.70421106,18.8376797 9.7055576,18.8401034 L9.73949029,18.9025827 L9.73679722,18.9039292 C9.95143496,19.3841037 9.57063476,19.6092444 9.52431394,19.6345593 C9.50169215,19.6466781 9.39585447,19.7000009 9.25985439,19.7000009" id="Fill-74"></path>
                </g>
                <path d="M457.74239,260.180687 C457.745083,260.179341 457.747776,260.178263 457.7502,260.176917 C457.4782,260.141907 457.206199,260.106897 456.934199,260.071887 C457.218049,260.437337 457.672639,261.618787 457.953796,262.240078 C458.533075,263.521172 459.081923,264.817078 459.553211,266.142338 C459.8411,266.952952 461.142661,266.60393 460.85154,265.784429 C460.341472,264.34983 459.743611,262.947009 459.116664,261.560617 C458.752561,260.755658 458.432624,259.823047 457.886469,259.119887 C457.694722,258.872932 457.317693,258.8969 457.070469,259.014318 C457.068045,259.015665 457.065352,259.017011 457.062928,259.018088 C456.280322,259.389463 456.962746,260.550715 457.74239,260.180687" id="Fill-77" fill="#FEFEFE"></path>
                <path d="M210.877618,266.424464 C203.132885,266.424464 199.238166,265.897161 196.919971,263.626094 C194.868928,261.616794 194.468469,258.64526 194.463082,253.877717 C193.437561,246.263328 193.804896,226.537663 194.295304,211.294344 C194.3901,208.348663 193.313411,205.560527 191.263445,203.443773 C189.214557,201.327827 186.464124,200.162536 183.518712,200.162536 L156.401106,200.162536 C155.58322,200.162536 154.919917,199.499232 154.919917,198.681347 C154.919917,197.863461 155.58322,197.200158 156.401106,197.200158 L183.518712,197.200158 C187.273392,197.200158 190.77977,198.685656 193.39151,201.382766 C196.004327,204.080954 197.376985,207.63473 197.256066,211.389678 C196.856145,223.830588 196.343923,245.853982 197.411456,253.573938 C197.420613,253.640996 197.425191,253.708861 197.425191,253.776726 C197.425191,257.701608 197.681841,260.225284 198.993097,261.510148 C201.244773,263.715773 207.719723,263.583274 220.620609,263.317737 C226.039606,263.206514 232.783863,263.06782 240.933634,263.06782 C242.444985,263.06782 243.572843,262.633697 244.48364,261.701356 C249.475785,256.590716 248.992109,235.939442 248.028529,194.796323 C247.478065,171.285546 246.723736,139.086115 246.723736,98.151979 C246.723736,97.1445012 246.687649,96.2393601 246.652369,95.3641121 C246.534413,92.4195086 246.440963,90.094042 248.153487,88.3343896 C251.48697,84.9085343 260.563965,85.0246057 294.338573,85.4579208 C306.594738,85.6149268 321.84829,85.8104437 341.196657,85.8985071 C344.599083,85.914127 347.177159,86.8760918 349.078467,88.8393404 C354.64666,94.5898543 354.247278,109.051913 353.451206,137.864269 C352.820758,160.680503 351.95736,191.927933 353.442319,234.870293 C353.470596,235.687909 352.830723,236.373565 352.013376,236.402111 C351.19145,236.431735 350.510373,235.790515 350.481557,234.972899 C348.993635,191.938167 349.85838,160.637414 350.489905,137.7824 C351.238579,110.682568 351.651158,95.7546074 346.950403,90.9000781 C345.61437,89.5206873 343.781736,88.8727345 341.182922,88.8608849 C321.822706,88.7728215 306.562421,88.5770353 294.300601,88.4200293 C264.043412,88.0324964 252.722012,87.8873399 250.276435,90.4002442 C249.488712,91.2097812 249.507024,92.6182572 249.612593,95.2450784 C249.647064,96.1073997 249.686114,97.0849843 249.686114,98.151979 C249.686114,139.051375 250.439904,171.230608 250.990098,194.727111 C252.034471,239.31359 252.46644,257.768396 246.602548,263.771251 C245.138325,265.270214 243.231092,266.030198 240.933634,266.030198 C232.814295,266.030198 226.087004,266.168622 220.681473,266.279577 C216.861082,266.357945 213.626704,266.424464 210.877618,266.424464" id="Fill-79" fill="#ED3464"></path>
                <path d="M102.999237,230.428827 C163.431206,230.428827 175.586919,232.89541 170.174385,222.967405 L138.801996,165.418907 C136.889916,161.910913 131.853335,161.910913 129.940986,165.418907 L98.568597,222.967405 C96.7354238,226.329704 99.1694211,230.428827 102.999237,230.428827" id="Fill-81" fill="#EDF0F4"></path>
                <path d="M127.907771,170.627683 C127.668088,170.627683 127.425173,170.569513 127.200302,170.446709 C126.48206,170.055136 126.217062,169.155381 126.608634,168.437139 L128.640556,164.70966 C129.626758,162.900186 131.354902,161.686688 133.381707,161.380755 C134.190705,161.257682 134.945034,161.815417 135.0673,162.624415 C135.189296,163.433145 134.632638,164.188012 133.82364,164.310008 C132.705208,164.478864 131.788486,165.124124 131.241524,166.127562 L129.209602,169.85531 C128.940833,170.348412 128.432381,170.627683 127.907771,170.627683 Z M143.576865,175.656723 C143.052255,175.656723 142.544072,175.377452 142.275034,174.884351 L138.021329,167.081178 C137.629757,166.362936 137.894485,165.463181 138.612727,165.071609 C139.3307,164.679767 140.230724,164.944765 140.622297,165.663007 L144.876002,173.46618 C145.267575,174.184421 145.002846,175.084176 144.284604,175.475749 C144.059463,175.598553 143.816548,175.656723 143.576865,175.656723 Z M120.173541,184.81478 C119.934127,184.81478 119.691213,184.756609 119.465802,184.633805 C118.747561,184.242233 118.482832,183.342478 118.874404,182.624236 L123.128109,174.821333 C123.519951,174.103091 124.419167,173.838362 125.137679,174.229934 C125.855921,174.621507 126.12065,175.521262 125.729346,176.239504 L121.475372,184.042407 C121.206603,184.535508 120.698152,184.81478 120.173541,184.81478 Z M151.311095,189.84382 C150.786484,189.84382 150.278033,189.564548 150.009264,189.071447 L145.75529,181.268544 C145.363717,180.550302 145.628715,179.650547 146.346957,179.258975 C147.065199,178.866864 147.964954,179.132131 148.356527,179.850373 L152.610232,187.653545 C153.001804,188.371787 152.737076,189.271542 152.018564,189.663115 C151.793693,189.785919 151.550778,189.84382 151.311095,189.84382 Z M112.439312,199.001876 C112.199898,199.001876 111.956983,198.943975 111.731842,198.820902 C111.0136,198.429329 110.748871,197.529844 111.140174,196.811602 L115.394149,189.008699 C115.785452,188.290457 116.685207,188.025458 117.403718,188.4173 C118.12196,188.808873 118.386689,189.708628 117.995117,190.42687 L113.741142,198.229503 C113.472374,198.722605 112.964191,199.001876 112.439312,199.001876 Z M159.045055,204.030916 C158.520445,204.030916 158.011993,203.751645 157.743225,203.258544 L153.489519,195.455641 C153.097947,194.737399 153.362945,193.837913 154.081187,193.446071 C154.79916,193.054229 155.698915,193.319497 156.090487,194.037739 L160.344192,201.840373 C160.735765,202.558615 160.471036,203.45837 159.752794,203.849942 C159.527653,203.972746 159.284738,204.030916 159.045055,204.030916 Z M104.705351,213.189242 C104.465937,213.189242 104.223022,213.131072 103.997881,213.008268 C103.279639,212.616695 103.014641,211.71694 103.406214,210.998698 L107.659919,203.195795 C108.051492,202.477553 108.950977,202.212555 109.669219,202.604128 C110.387461,202.9957 110.652459,203.895455 110.260887,204.613697 L106.007182,212.416869 C105.738413,212.909971 105.229961,213.189242 104.705351,213.189242 Z M166.779285,218.218282 C166.254675,218.218282 165.746223,217.939011 165.477455,217.44591 L161.223749,209.643007 C160.832177,208.924765 161.096906,208.02501 161.815417,207.633437 C162.53339,207.241595 163.433145,207.506594 163.824717,208.224835 L168.078422,216.027739 C168.469995,216.745981 168.204997,217.645736 167.486755,218.037308 C167.261883,218.160112 167.018968,218.218282 166.779285,218.218282 Z M98.0114545,227.674462 C97.3002145,227.674462 96.6724598,227.160354 96.5520795,226.43538 C96.4941785,226.085819 96.464824,225.729526 96.464824,225.377272 C96.464824,224.285501 96.734939,223.236281 97.268167,222.258427 L99.9256892,217.382892 C100.317262,216.66465 101.217017,216.399652 101.935259,216.791493 C102.653501,217.183066 102.918229,218.082821 102.526657,218.801063 L99.8691347,223.676329 C99.5758593,224.214135 99.4272018,224.786413 99.4272018,225.377272 C99.4272018,225.567672 99.4430909,225.760766 99.4745999,225.950896 C99.6084455,226.75774 99.0628293,227.520418 98.255716,227.654264 C98.1735774,227.667998 98.0922466,227.674462 98.0114545,227.674462 Z M167.557582,231.095469 C166.892125,231.095469 166.287261,230.643841 166.120829,229.968958 C165.924774,229.174502 166.409796,228.371967 167.203982,228.175911 C169.849655,227.52338 169.849655,226.735119 169.849655,226.398485 C169.849655,225.804932 169.547223,224.936955 168.950708,223.818792 C168.565868,223.09678 168.838676,222.199718 169.560419,221.814609 C170.282701,221.430577 171.179762,221.702847 171.564333,222.42432 C172.415613,224.019965 172.812033,225.282745 172.812033,226.398485 C172.812033,229.84373 169.12495,230.753449 167.913606,231.052111 C167.794303,231.081465 167.675,231.095469 167.557582,231.095469 Z M111.886155,231.92709 L111.88023,231.92709 C109.043349,231.916317 106.084203,231.910123 102.999291,231.910123 C102.181136,231.910123 101.518102,231.24682 101.518102,230.428934 C101.518102,229.611049 102.181136,228.947745 102.999291,228.947745 C106.088243,228.947745 109.05089,228.95394 111.891541,228.964712 C112.709696,228.967943 113.370306,229.633671 113.367075,230.451556 C113.364112,231.267557 112.701617,231.92709 111.886155,231.92709 Z M128.043502,232.035082 L128.030306,232.035082 C125.232206,232.010305 122.273598,231.985799 119.147212,231.965331 C118.329057,231.959676 117.670332,231.292333 117.675718,230.474447 C117.681105,229.659524 118.343331,229.002953 119.156638,229.002953 L119.166602,229.002953 C122.295412,229.023421 125.256174,229.047928 128.056429,229.072704 C128.874314,229.079975 129.531693,229.748665 129.524422,230.56682 C129.51742,231.380396 128.855463,232.035082 128.043502,232.035082 Z M144.20058,232.170005 L144.19277,232.170005 C141.471691,232.156001 138.512545,232.130955 135.300789,232.10187 C134.482634,232.09406 133.825525,231.425101 133.832796,230.607216 C133.840337,229.793639 134.502024,229.139492 135.313716,229.139492 L135.32745,229.139492 C138.535167,229.168577 141.490543,229.193623 144.208121,229.207627 C145.026006,229.211666 145.685808,229.878201 145.681769,230.696356 C145.67746,231.511549 145.014964,232.170005 144.20058,232.170005 Z M151.470524,232.172428 C150.656948,232.172428 149.994722,231.515588 149.989605,230.700665 C149.984488,229.88278 150.643213,229.215437 151.461099,229.210051 C155.147105,229.186621 157.947629,229.118217 160.273903,228.995413 C161.093943,228.95367 161.788217,229.57954 161.831306,230.396618 C161.874395,231.213426 161.247179,231.910662 160.430371,231.953751 C158.056967,232.079248 155.213085,232.14846 151.480219,232.172428 L151.470524,232.172428 Z" id="Fill-83" fill="#ED3464"></path>
                <path d="M283.214575,143.03343 C282.457553,137.785712 285.972549,126.113405 277.762992,126.113405 L239.565285,126.113405 L239.565285,136.315834 L283.214575,143.03343 Z" id="Fill-85" fill="#5183C3"></path>
                <path d="M247.776242,127.258984 C246.832051,125.221406 244.790704,123.917421 242.544952,123.917421 C220.894818,123.917421 213.038861,122.002917 213.038861,129.683017 C213.038861,178.977253 211.000745,183.605833 218.804456,183.605833 C281.614945,183.605833 286.795336,185.699965 286.795336,177.839969 C286.795336,140.101161 288.778782,134.166979 281.02974,134.166979 L254.660269,134.166979 C249.695324,134.166979 247.756582,127.229898 247.776242,127.258984" id="Fill-87" fill="#6EBDE9"></path>
                <path d="M225.265564,123.839511 C219.571066,123.839511 216.146288,124.199844 214.459887,125.855005 C213.582215,126.716249 213.173676,127.93244 213.173676,129.682936 C213.173676,139.701698 213.088844,147.929567 213.02071,154.540517 C212.829232,173.13644 212.757597,180.094527 215.018699,182.379059 C215.915491,183.285277 217.180696,183.471099 218.804618,183.471099 C231.798953,183.471099 242.3636,183.561047 250.852429,183.633222 C274.969954,183.839511 283.093602,183.907915 285.59735,181.425173 C286.4796,180.550194 286.660574,179.359049 286.660574,177.840157 C286.660574,170.378197 286.739212,164.060792 286.802499,158.984623 C286.990206,143.954595 287.067767,137.733601 284.829825,135.467921 C284.022712,134.650574 282.886236,134.301821 281.029633,134.301821 L254.660161,134.301821 C249.763082,134.301821 247.757283,127.693295 247.649021,127.304416 C246.727991,125.32824 244.725962,124.051994 242.544844,124.051994 C238.494466,124.051994 234.939612,123.985206 231.803262,123.926228 C229.354453,123.880176 227.181145,123.839511 225.265564,123.839511 M265.533704,183.992747 C261.452355,183.992747 256.606444,183.951543 250.850274,183.902529 C242.361985,183.830354 231.797876,183.740406 218.804618,183.740406 C217.113369,183.740406 215.789725,183.541119 214.827222,182.568382 C212.486943,180.204135 212.553731,173.736456 212.751403,154.537555 C212.819537,147.927143 212.904369,139.70062 212.904369,129.682936 C212.904369,127.855418 213.338492,126.578095 214.271102,125.662989 C216.605725,123.371455 222.005871,123.473253 231.808379,123.656921 C234.943652,123.715899 238.49689,123.782687 242.544844,123.782687 C244.834493,123.782687 246.935896,125.124914 247.898399,127.202348 C247.903516,127.213121 247.907017,127.224701 247.908902,127.236281 C247.958186,127.420487 249.889656,134.032514 254.660161,134.032514 L281.029633,134.032514 C282.965143,134.032514 284.158981,134.404966 285.021571,135.278598 C287.33842,137.624532 287.260321,143.878381 287.071806,158.988124 C287.008519,164.063215 286.929881,170.379543 286.929881,177.840157 C286.929881,179.212815 286.791188,180.620483 285.786942,181.61665 C283.818038,183.568857 278.611525,183.992747 265.533704,183.992747" id="Fill-89" fill="#6EBDE9"></path>
                <path d="M239.975682,132.692981 L221.331553,132.692981 C219.402237,132.692981 219.399813,129.014785 221.331553,129.014785 L239.975682,129.014785 C241.904997,129.014785 241.907421,132.692981 239.975682,132.692981" id="Fill-91" fill="#FEFEFE"></path>
                <path d="M158.770119,86.5667926 L158.757193,86.5667926 C157.939307,86.5597907 157.281659,85.8908319 157.288661,85.0729463 C157.323941,80.9517402 157.372146,76.192007 157.4252,70.9728359 C157.593786,54.3250806 157.803846,33.6067488 157.803846,13.7106116 C157.803846,5.95726097 153.88462,3.25341796 142.272368,2.99461386 C141.454752,2.97603167 140.80626,2.29845508 140.824573,1.4808388 C140.842886,0.662683914 141.524233,0.0109607979 142.338348,0.0327746708 C153.399329,0.27945995 160.766224,2.69972261 160.766224,13.7106116 C160.766224,33.6215607 160.556164,54.3485103 160.387308,71.002729 C160.334524,76.2202842 160.286318,80.9786709 160.251039,85.0982612 C160.244037,85.9118378 159.58235,86.5667926 158.770119,86.5667926" id="Fill-93" fill="#ECE9F4"></path>
                <path d="M93.4319955,63.7840606 C100.137203,63.2303653 104.998734,64.6313007 106.713682,58.307432 C107.375638,55.8597 107.641714,52.5967755 107.614245,49.9683385 C107.50733,39.5108755 104.367748,38.5556433 93.6994174,38.5556433 C86.6419562,38.5556433 78.2325736,37.0224782 74.4466548,40.8312881 C71.5467562,43.7486916 72.3164358,50.6798478 72.7333232,58.5519628 C72.9633114,62.895078 78.5834807,64.1433162 83.2239109,63.9459142 C85.3134645,63.8567735 84.7209889,68.2408234 84.71668,68.2252036 C84.8365216,69.4621309 86.3004749,70.0505669 87.2430496,69.2407605 C92.5570168,64.6757363 92.7603436,63.8395379 93.4319955,63.7840606" id="Fill-95" fill="#9C8CC2"></path>
                <path d="M80.5071142,52.820839 C80.4882627,53.6788513 81.3425047,54.5435963 82.6534916,54.3168398 C83.213381,54.2204278 83.5777534,53.8972594 83.8403278,53.5169978 C84.0266883,53.2452669 84.1058646,52.7774805 84.0894369,52.4758566 C84.0600824,51.976292 83.88611,51.5424383 83.3886999,51.2346203 C82.4019588,50.6273329 80.5453558,50.9790479 80.5071142,52.820839" id="Fill-97" fill="#FEFEFE"></path>
                <path d="M88.0723,52.820839 C88.0537178,53.6788513 88.9076905,54.5435963 90.2186773,54.3168398 C90.7785667,54.2204278 91.1429392,53.8972594 91.4055136,53.5169978 C91.5918741,53.2452669 91.6710504,52.7774805 91.6546227,52.4758566 C91.6252682,51.976292 91.4512958,51.5424383 90.9538857,51.2346203 C89.9671445,50.6273329 88.1105416,50.9790479 88.0723,52.820839" id="Fill-99" fill="#FEFEFE"></path>
                <path d="M95.6376204,52.820839 C95.6187689,53.6788513 96.4727416,54.5435963 97.7837285,54.3168398 C98.3436179,54.2204278 98.7082596,53.8972594 98.970834,53.5169978 C99.1571945,53.2452669 99.2363708,52.7774805 99.2199431,52.4758566 C99.1905886,51.976292 99.0166162,51.5424383 98.5192061,51.2346203 C97.532465,50.6273329 95.675862,50.9790479 95.6376204,52.820839" id="Fill-101" fill="#FEFEFE"></path>
                <path d="M161.402488,86.5678429 C155.917511,86.5678429 149.785659,89.5334524 146.159169,94.029534 C141.63131,99.6432399 141.983294,105.471314 147.151027,110.44003 C150.749778,113.900356 154.972513,115.650314 159.423081,115.650852 C162.749562,115.651122 166.202887,114.673537 169.620932,112.702209 C171.80609,111.441852 173.281893,109.404005 174.007406,106.644416 C175.415343,101.290053 173.604253,94.8762354 172.36975,92.7858739 C169.585653,88.0713843 165.446134,86.8228767 162.464097,86.6060845 C162.113998,86.5805004 161.759051,86.5678429 161.402488,86.5678429 Z M159.442741,118.587915 C154.22734,118.587915 149.245159,116.563265 145.09783,112.575366 C138.854484,106.572242 138.389391,98.9441188 143.853362,92.1696994 C148.359139,86.5834628 155.922628,83.1613778 162.679273,83.6515166 C167.967656,84.0363565 172.200625,86.6739499 174.920626,91.2793702 C176.647962,94.2043143 178.462553,101.3493 176.872564,107.397668 C175.938338,110.950367 173.996634,113.598463 171.101044,115.268436 C167.249953,117.489412 163.28306,118.587646 159.442741,118.587915 Z" id="Fill-103" fill="#ECE9F4"></path>
                <path d="M166.45275,99.4596264 C159.260097,93.1112508 159.932287,90.1623383 152.575087,99.2958877 C151.054041,101.18373 152.482984,101.883121 158.037981,107.689112 C160.134537,109.880194 162.212241,106.860454 166.565051,102.38861 C167.372972,101.558336 167.321265,100.226344 166.45275,99.4596264" id="Fill-105" fill="#FEC53E"></path>
                <path d="M386.859072,109.902143 C381.37598,109.902143 375.246551,112.866675 371.621677,117.360871 C367.095433,122.972692 367.447418,128.798612 372.613266,133.765173 C378.899701,139.810309 387.086367,140.634119 395.074553,136.026545 C397.258903,134.766726 398.733898,132.729688 399.459142,129.971444 C400.86654,124.618966 399.056258,118.207304 397.822293,116.11775 C395.039005,111.404876 390.901101,110.156907 387.920141,109.940115 C387.570042,109.9148 387.215634,109.902143 386.859072,109.902143 Z M384.900132,141.911174 C379.686616,141.911443 374.705782,139.887331 370.5598,135.900778 C364.318608,129.899539 363.853515,122.273302 369.31587,115.501037 C373.820031,109.916685 381.381366,106.493523 388.135049,106.985547 C393.422085,107.370387 397.653976,110.006903 400.37317,114.611246 C402.099967,117.535382 403.914019,124.678483 402.3243,130.724696 C401.390343,134.276318 399.449177,136.923337 396.554665,138.592772 C392.704651,140.813209 388.739104,141.910904 384.900132,141.911174 Z" id="Fill-107" fill="#ECE9F4"></path>
                <path d="M392.377308,118.100443 C391.929451,118.087516 391.545688,118.259603 391.207169,118.54049 C387.030216,122.015898 385.938984,123.982648 381.925231,127.608598 C381.382308,127.017738 380.851235,126.417453 380.367829,125.774886 C380.074822,125.339686 379.816557,124.890751 379.621848,124.397111 C378.873713,122.50469 375.605941,123.916937 376.693672,125.957746 C377.205356,127.256344 380.341706,131.52163 381.74291,131.558525 C384.226191,131.625852 388.724966,124.917143 393.459384,120.977989 C394.521262,120.094661 393.920438,118.142724 392.377308,118.100443" id="Fill-109" fill="#88CBA2"></path>
                <path d="M282.827715,51.9022056 C281.361877,77.5857519 314.538085,70.1655341 315.020952,55.2723143 C315.757776,32.5287934 284.122274,29.2208946 282.827715,51.9022056" id="Fill-111" fill="#F27546"></path>
                <path d="M308.096044,56.4599047 C315.690773,46.0835031 308.623078,45.7374436 308.910428,45.7482158 C309.735585,42.9552322 308.149367,41.5082453 305.425326,41.9402138 C305.378197,40.3181773 304.354022,39.5541532 302.031249,39.8105335 C299.847168,40.0515633 298.94876,40.602027 298.94876,40.602027 C299.309093,38.5429051 298.353053,37.5426986 296.652109,37.5426986 C290.24664,37.3113639 289.138172,45.298473 289.138172,45.298473 C286.071573,45.298473 283.988213,51.5170426 288.838434,56.4599047 L308.096044,56.4599047 Z" id="Fill-113" fill="#383753"></path>
                <path d="M302.875068,46.4003429 C299.468334,46.4003429 294.216846,45.5673761 291.070262,47.315987 C290.146,47.8295556 290.045549,49.0365899 289.624083,50.0098656 C288.975592,51.5096367 286.931551,62.02527 293.534422,63.6446134 C294.747112,63.9413898 302.399203,64.0334928 304.791727,62.9053655 C305.508622,62.5673851 306.142033,62.0882878 306.623284,61.5195113 C308.370279,59.4560805 308.143253,55.4372111 308.000251,52.7433324 C307.699705,47.0140937 306.090864,46.4003429 302.875068,46.4003429" id="Fill-115" fill="#F9BBA6"></path>
                <path d="M295.197447,68.7530993 C295.236766,67.6120452 295.520885,63.8158927 295.845669,62.2092067 C295.898992,61.946363 301.246084,61.6915985 301.31772,62.2210562 C301.476341,63.3944271 301.296714,63.2856271 302.056429,68.1948257 C302.056429,68.1948257 299.088126,69.1395549 295.332101,68.7662953" id="Fill-117" fill="#F9BBA6"></path>
                <path d="M292.724481,46.0029534 C296.269909,49.9046743 301.402363,50.1080011 305.156773,46.0029534 L292.724481,46.0029534 Z" id="Fill-119" fill="#383753"></path>
                <path d="M294.997567,55.5843874 C294.641274,55.6355557 294.300601,55.9579163 294.412094,56.3379086 C294.497464,56.6271444 294.784276,56.8474375 295.143532,56.763683 C295.579271,56.6621543 295.80872,56.0249737 295.507096,55.7104231 C295.377829,55.5755002 295.183928,55.557726 294.997567,55.5843874" id="Fill-121" fill="#C1564D"></path>
                <path d="M302.78275,55.5625735 C302.430227,55.7193102 302.173577,56.1510095 302.399257,56.5099958 C302.571613,56.7830732 302.933562,56.9295762 303.277467,56.7351365 C303.70782,56.4916829 303.725055,55.9913104 303.355028,55.6974963 C303.19856,55.5730765 302.966956,55.4804348 302.78275,55.5625735" id="Fill-123" fill="#C1564D"></path>
                <path d="M299.041913,58.3592467 C298.908068,58.3592467 298.766681,58.3519754 298.617216,58.3347397 C298.395576,58.3094248 298.236146,58.109599 298.261461,57.8879593 C298.286507,57.6663196 298.484986,57.5047353 298.708242,57.5322046 C299.261398,57.5946839 299.657818,57.4953096 299.883228,57.4080541 L299.32684,53.8900958 C299.29183,53.6698026 299.442103,53.4627055 299.662666,53.4279648 C299.881074,53.3932242 300.089787,53.5434976 300.124797,53.7640601 L300.727237,57.5726007 C300.751474,57.7250285 300.686571,57.8774563 300.560805,57.9660583 C300.534952,57.9841019 299.989874,58.3592467 299.041913,58.3592467" id="Fill-125" fill="#D26E63"></path>
                <path d="M298.866487,60.9545051 C298.109195,60.9545051 297.355135,60.7339426 296.719571,60.3154394 C296.533479,60.1926353 296.482042,59.9419105 296.604576,59.7558193 C296.72738,59.5694588 296.978105,59.5182904 297.164197,59.6405558 C297.829924,60.0792571 298.661544,60.2438037 299.44442,60.0913759 C299.663635,60.0480175 299.875042,60.1918274 299.917861,60.4107741 C299.960412,60.62999 299.81741,60.8419347 299.598463,60.8844852 C299.356625,60.9313447 299.111287,60.9545051 298.866487,60.9545051" id="Fill-127" fill="#C1564D"></path>
                <path d="M292.969066,53.7329012 C292.85838,53.7329012 292.748234,53.6876577 292.66825,53.5987863 C292.519053,53.4328932 292.533057,53.1773208 292.698951,53.0283939 C293.410999,52.3887896 294.329066,52.0004488 295.284029,51.9350072 C295.5054,51.9175023 295.699301,52.0877043 295.714382,52.3104213 C295.730002,52.5328689 295.561954,52.7256928 295.339237,52.740774 C294.563363,52.7943661 293.817383,53.109994 293.238642,53.6294873 C293.16162,53.6986992 293.064939,53.7329012 292.969066,53.7329012" id="Fill-129" fill="#383753"></path>
                <path d="M305.188632,53.7329012 C305.092758,53.7329012 304.996077,53.6986992 304.919055,53.6294873 C304.340314,53.109994 303.594064,52.7943661 302.818191,52.740774 C302.595474,52.7256928 302.427426,52.5328689 302.443046,52.3104213 C302.458127,52.0877043 302.653644,51.917233 302.873399,51.9350072 C303.828092,52.0004488 304.74616,52.3887896 305.458747,53.0283939 C305.62464,53.1773208 305.638644,53.4328932 305.489448,53.5987863 C305.409733,53.6876577 305.299317,53.7329012 305.188632,53.7329012" id="Fill-131" fill="#383753"></path>
                <path d="M19.5925474,380.135955 C16.9896945,380.135955 14.8796736,378.025934 14.8796736,375.423081 L14.8796736,352.616812 C14.8796736,350.013959 16.9896945,347.903938 19.5925474,347.903938 C22.1954002,347.903938 24.3054212,350.013959 24.3054212,352.616812 L24.3054212,375.423081 C24.3054212,378.025934 22.1954002,380.135955 19.5925474,380.135955" id="Fill-133" fill="#F9BBA6"></path>
                <path d="M44.5251578,380.135955 C41.9223049,380.135955 39.812284,378.025934 39.812284,375.423081 L39.812284,352.616812 C39.812284,350.013959 41.9223049,347.903938 44.5251578,347.903938 C47.1280106,347.903938 49.2380315,350.013959 49.2380315,352.616812 L49.2380315,375.423081 C49.2380315,378.025934 47.1280106,380.135955 44.5251578,380.135955" id="Fill-135" fill="#F9BBA6"></path>
                <path d="M10.6380872,289.910195 C10.5998456,290.454465 10.9426735,340.370531 10.0566532,362.152356 C10.0378017,362.612332 10.3984039,363.049418 11.0032676,363.042416 C15.2362362,364.720738 26.9826028,366.296184 33.5757785,363.920896 C34.2355809,363.673133 33.9212995,362.594828 33.9212995,362.594828 C40.6701347,363.655897 50.1707497,363.21181 53.9941022,361.69588 C54.5989659,361.702882 54.9722255,361.265258 54.9404472,360.805821 C53.667702,342.318967 53.9528982,290.964532 53.8791081,289.910195 L10.6380872,289.910195 Z" id="Fill-137" fill="#6EBDE9"></path>
                <path d="M11.0032676,362.907682 C11.0202339,362.907682 11.036931,362.910913 11.0528201,362.917107 C15.2338124,364.574692 26.9430146,366.167105 33.5302656,363.79424 C34.0632243,363.594145 33.7947252,362.641875 33.7920321,362.63245 C33.7791054,362.588014 33.7896083,362.540347 33.8203093,362.505875 C33.8504717,362.470865 33.8965232,362.453361 33.9420361,362.461709 C40.595806,363.507967 50.1295457,363.08327 53.9445497,361.570572 C53.9607081,361.564109 53.9771358,361.560608 53.995718,361.561146 C54.2510211,361.558453 54.4721222,361.477661 54.6232035,361.317962 C54.7540867,361.179269 54.8189897,361.000718 54.806063,360.814896 C53.7802724,345.913328 53.7662684,309.364319 53.7608822,295.605151 C53.759805,292.644389 53.7589971,290.58419 53.7487634,290.044768 L10.7705863,290.044768 C10.7676239,290.478891 10.7722021,291.973814 10.7783962,294.086528 C10.8150219,306.450416 10.9267844,344.075577 10.1910375,362.157931 C10.1834969,362.349139 10.2554019,362.537384 10.3887089,362.674731 C10.4940079,362.782723 10.6846773,362.903373 11.0016518,362.907682 L11.0032676,362.907682 Z M24.9027442,365.262503 C19.384373,365.262503 13.6642908,364.235096 10.9776834,363.176989 C10.667711,363.174296 10.3908633,363.063072 10.1953464,362.862169 C10.010871,362.672307 9.91122741,362.411618 9.92199969,362.146889 C10.6574773,344.070729 10.5457149,306.449877 10.5090891,294.087336 C10.5007406,291.251802 10.4972396,289.994407 10.5039723,289.900689 C10.5088198,289.83013 10.5672594,289.775461 10.6380872,289.775461 L53.8791081,289.775461 C53.9499358,289.775461 54.0083754,289.83013 54.0134923,289.900689 C54.0280349,290.110209 54.0288428,292.178488 54.0301893,295.605151 C54.0355755,309.361626 54.0495794,345.903902 55.0748315,360.796583 C55.0926057,361.05431 54.9994255,361.311499 54.8189897,361.502707 C54.6213183,361.712227 54.3382766,361.82776 54.019417,361.830453 C50.1909477,363.334803 40.7635843,363.769464 34.0955412,362.757677 C34.158559,363.112355 34.2056878,363.828442 33.6231766,364.04685 C31.1969891,364.921021 28.0832608,365.262503 24.9027442,365.262503 Z" id="Fill-139" fill="#6EBDE9"></path>
            </g>
            <g id="Group-151" transform="translate(19.659416, 304.158101)">
                <g id="Group-144">
                    <mask id="mask-8" fill="white">
                        <use xlink:href="#path-7"></use>
                    </mask>
                    <g id="Clip-143"></g>
                    <path d="M23.4664758,74.5947198 C23.1783172,74.5947198 22.9394418,74.3666167 22.9286695,74.0763037 C22.8376437,71.6498469 22.3386177,16.3026652 22.4643841,13.8487392 C22.4797346,13.5516935 22.7269585,13.3249369 23.029929,13.3384023 C23.3269747,13.3537528 23.5556164,13.6066321 23.5402659,13.9039471 C23.4144995,16.3516791 23.9143334,71.6126826 24.0050899,74.0359076 C24.0164008,74.3332226 23.7842581,74.5831396 23.4869431,74.5944505 C23.4802104,74.5947198 23.4732084,74.5947198 23.4664758,74.5947198" id="Fill-142" fill="#5895CF" mask="url(#mask-8)"></path>
                </g>
                <g id="Group-147">
                    <mask id="mask-10" fill="white">
                        <use xlink:href="#path-9"></use>
                    </mask>
                    <g id="Clip-146"></g>
                    <path d="M-0.626515974,12.2385522 C-0.87804878,12.2385522 -1.10292019,12.0616175 -1.15408853,11.8057757 C-1.21252817,11.5141162 -1.0234746,11.2302665 -0.73181504,11.1718269 C3.34226236,10.3563651 7.01130192,7.1817733 8.61556415,3.08426618 C8.7240949,2.80714921 9.03676042,2.67114913 9.31333878,2.77914127 C9.59045576,2.88740271 9.72699444,3.19979892 9.61846369,3.4771852 C7.88412614,7.90755586 3.90430622,11.3425676 -0.520139681,12.2280492 C-0.555957521,12.2350512 -0.591506055,12.2385522 -0.626515974,12.2385522" id="Fill-145" fill="#5895CF" mask="url(#mask-10)"></path>
                </g>
                <g id="Group-150">
                    <mask id="mask-12" fill="white">
                        <use xlink:href="#path-11"></use>
                    </mask>
                    <g id="Clip-149"></g>
                    <path d="M44.2277081,10.9067479 C39.4176145,10.9067479 36.6499457,5.63640852 34.9573507,2.41334147 C34.8189269,2.14995916 34.9204557,1.8243669 35.1835687,1.68621238 C35.4466817,1.54724993 35.7725432,1.64877869 35.9109671,1.91269962 C38.0638078,6.01128397 40.7180983,10.3355476 44.9804214,9.77942853 C45.2769285,9.74441861 45.5456969,9.94855337 45.5844771,10.2437139 C45.6229881,10.5388745 45.4153523,10.8092588 45.1201917,10.8477697 C44.8156054,10.8876271 44.5174825,10.9067479 44.2277081,10.9067479" id="Fill-148" fill="#5895CF" mask="url(#mask-12)"></path>
                </g>
            </g>
            <g id="Group-176" transform="translate(0.807921, 214.209539)">
                <path d="M7.63639057,114.737524 C5.69549449,114.737524 3.87767175,113.529413 3.19336248,111.595249 C-1.25989928,99.0078368 -1.04068332,87.6080684 3.84454698,77.7126494 C11.8887492,61.4187635 29.680521,55.4915842 30.4340422,55.2473226 C32.9105901,54.4437103 35.5678429,55.8004794 36.3709166,58.2764886 C37.1726438,60.7489968 35.8209916,63.4032873 33.3514457,64.2101313 C33.1088001,64.2911928 18.4773468,69.2801063 12.263894,81.9515427 C8.57896532,89.4657486 8.5170247,98.3816979 12.0794187,108.451359 C12.9476647,110.905554 11.6619927,113.598355 9.20806664,114.466332 C8.6885733,114.650269 8.15803837,114.737524 7.63639057,114.737524" id="Fill-152" fill="#F9BBA6"></path>
                <path d="M0.544081079,101.231128 C-1.61360719,87.0402614 2.93202689,74.5460291 13.6894979,65.0992756 C21.5828882,58.1678501 30.0762947,55.3632863 30.4339345,55.2472149 L33.3534925,64.2092157 C33.2818568,64.2329147 26.1207124,66.639712 19.688313,72.3770299 C11.5097265,79.6725585 8.20398215,88.9038664 9.86291372,99.8140345 L0.544081079,101.231128 Z" id="Fill-154" fill="#88CBA2"></path>
                <path d="M76.6106987,73.9259226 C74.9189116,73.9259226 73.1937305,73.815776 71.439195,73.5941363 C59.9435532,72.1409553 51.1215921,66.5054355 48.6916344,64.8131099 C46.55576,63.3254576 46.0303419,60.387856 47.5179942,58.252251 C49.0059158,56.1158379 51.9435173,55.5912278 54.0788531,57.0783414 C58.1661266,59.9254558 65.1837303,63.3025665 72.6211837,64.2427175 C81.6206181,65.3783854 89.2282737,62.767184 95.2330135,56.4767094 C97.0303689,54.5937144 100.013753,54.5245025 101.896478,56.3218579 C103.779204,58.118944 103.848416,61.1020584 102.05133,62.9847842 C95.1670332,70.1968276 86.4498326,73.9259226 76.6106987,73.9259226" id="Fill-156" fill="#F9BBA6"></path>
                <path d="M76.6588238,74.0106197 C73.4858479,74.0106197 70.1994937,73.6063898 66.808379,72.7960448 C58.6586084,70.8486853 52.0269217,67.0040576 48.7992765,64.8856881 L53.9710495,57.0054939 C58.5255707,59.9948024 74.4602009,69.1684785 88.2920815,61.7086726 L92.7663492,70.0052156 C87.8191783,72.6729714 82.4273813,74.0106197 76.6588238,74.0106197" id="Fill-158" fill="#61C092"></path>
                <path d="M62.8907691,93.5506252 C63.4083772,84.3941848 62.0863488,78.1467993 57.9915348,62.4028385 C56.4616013,56.5209027 49.3357362,54.6637611 47.3315529,54.6882681 L34.1745559,54.6882681 C32.1703726,54.6637611 27.3457364,54.2468738 23.514574,62.4028385 C18.9247736,72.1735684 19.1590707,88.2415056 19.4213758,95.8424284 C38.5429859,96.6002585 40.9872169,97.1334865 42.9089922,94.7134932 C43.3180696,94.3768593 44.6473693,91.3646597 46.102974,92.8641615 C47.3778737,93.9548552 48.1152365,95.6555293 50.1579306,95.5214144 C53.2536154,95.3183569 59.0267512,96.3053673 62.8907691,93.5506252" id="Fill-160" fill="#88CBA2"></path>
                <path d="M45.0361679,91.7654156 C44.7466628,91.7654156 44.5077875,91.5356967 44.4980924,91.2443064 C44.4568884,89.9879889 44.4197241,88.7020476 44.3820211,87.3948311 C44.122409,78.4056303 43.8283257,68.2169358 41.9383287,59.8492958 C41.8726178,59.559252 42.0546693,59.2710935 42.3449824,59.2053826 C42.6344875,59.1410182 42.923454,59.3217232 42.9888956,59.6120362 C44.902053,68.0814744 45.1977522,78.3256461 45.4587107,87.3635915 C45.4964137,88.6697308 45.5335781,89.9540562 45.5747821,91.2092965 C45.5844771,91.5063422 45.3512572,91.7554512 45.0539422,91.7651463 C45.0480175,91.7654156 45.0420927,91.7654156 45.0361679,91.7654156" id="Fill-162" fill="#61C092"></path>
                <path d="M49.7834861,54.7854071 C50.5364687,58.2920545 48.0375683,63.5219979 45.2806718,61.654084 C44.3362119,61.0142104 43.3745164,60.3783764 42.4634505,59.7306929 C38.7001535,62.2691814 37.3967073,64.9969927 35.4533874,63.640493 C32.4476512,61.5425909 30.8587395,57.3090837 31.5764428,54.6757992 C32.7358098,50.4207474 48.7611964,50.0237888 49.7834861,54.7854071" id="Fill-164" fill="#C1E3D2"></path>
                <path d="M45.0581165,39.4314838 C45.7354238,46.1515032 47.4867276,52.7734948 47.5613257,54.8552385 C47.5691356,55.0693376 47.585294,55.283706 47.6221891,55.4940348 C47.9749814,57.5122221 33.6322253,58.452373 34.0838532,56.1349857 C34.0343007,55.7773459 35.2197905,50.1173191 35.9242978,39.385163 C35.956076,38.899333 36.2892089,38.5004892 36.7330269,38.5115308 C44.0983061,38.7864934 44.960358,38.4681724 45.0581165,39.4314838" id="Fill-166" fill="#F9BBA6"></path>
                <path d="M40.9731321,0.0976507446 C26.8619801,1.23735828 21.9258508,6.4926165 21.2315772,20.8127508 C20.5661194,34.5468729 25.8639281,36.0213291 40.7299478,35.4899863 C52.1744212,35.0806395 59.5399697,34.0298033 59.4107023,21.6098997 C59.2655458,7.34416546 52.7036096,-0.854349758 40.9731321,0.0976507446" id="Fill-168" fill="#F9BBA6"></path>
                <path d="M44.9470004,22.9553579 C44.7428656,22.9553579 44.5473487,22.8384786 44.4568615,22.6408072 C44.3329802,22.3701536 44.452014,22.0507554 44.7223983,21.9268742 C45.2346203,21.6923077 45.8699157,21.1992064 46.2703753,20.8596102 C45.9084266,20.1357128 45.0490677,18.4848605 44.2066752,17.3677747 C44.0278553,17.1302459 44.0752534,16.7922655 44.3127822,16.6134456 C44.5505804,16.4338178 44.8880221,16.4817544 45.0671113,16.7192833 C46.2342882,18.267799 47.3734571,20.6595151 47.4213938,20.7605052 C47.5221146,20.9727192 47.4736393,21.2253292 47.3020907,21.3855669 C47.254962,21.4291947 46.1394921,22.4627952 45.1707945,22.9060747 C45.0980816,22.9394687 45.0218677,22.9550886 44.9470004,22.9553579" id="Fill-170" fill="#EA9B88"></path>
                <path d="M21.2748009,45.050899 C25.8465578,53.279846 40.1047515,55.3039579 49.3484474,53.7988007 C76.1105685,49.4419509 60.9243427,14.6717147 59.433728,12.8342325 C58.5398978,11.7319587 56.7018771,11.7871666 56.1341778,14.2467481 C55.6707003,16.2555096 57.4220042,24.3918149 57.0999129,25.3330431 C56.2553659,27.8020503 49.2598454,28.6527914 46.6615708,28.9498371 C38.393305,29.8948356 28.8584881,29.716285 26.9418297,27.9364346 C25.0254405,26.1565841 25.4294012,21.8131996 25.6949379,17.491629 C25.827437,15.3358259 20.9858344,13.0986921 19.6950456,17.2099338 C19.212986,18.7460614 17.6044148,38.4439886 21.2748009,45.050899" id="Fill-172" fill="#B16D60"></path>
                <path d="M34.0078548,23.6901622 C35.4648061,22.3080783 47.9326463,21.5031195 49.8250671,22.4680467 C53.0885302,24.1318258 54.9427094,28.8096897 54.5942261,29.9464348 C54.4132517,30.5386411 34.6471898,33.0658186 31.9083368,30.2324389 C30.5798451,28.8578956 33.6421358,24.0370297 34.0078548,23.6901622" id="Fill-174" fill="#B16D60"></path>
            </g>
            <g id="Group-195" transform="translate(19.659416, 226.328357)">
                <g id="Group-179">
                    <mask id="mask-14" fill="white">
                        <use xlink:href="#path-13"></use>
                    </mask>
                    <g id="Clip-178"></g>
                    <path d="M-1.36856468,42.5713888 C-1.76094509,42.5713888 -2.10485022,42.2853847 -2.16598293,41.885733 C-2.233579,41.444608 -1.93060854,41.0322989 -1.48975287,40.9647028 C10.3643366,39.151189 21.9973249,35.4086286 32.1515481,30.1423288 C40.5862456,25.7677047 47.664982,20.4768979 51.5728969,15.6261389 C51.8529763,15.2781942 52.361428,15.2235249 52.7091035,15.5038735 C53.0565096,15.7836836 53.1111789,16.2924046 52.8310996,16.6398108 C45.0206559,26.3348654 24.7666095,38.5821431 -1.24522204,42.5622324 C-1.28669533,42.5684264 -1.32789932,42.5713888 -1.36856468,42.5713888" id="Fill-177" fill="#B97A6C" mask="url(#mask-14)"></path>
                </g>
                <g id="Group-182">
                    <mask id="mask-16" fill="white">
                        <use xlink:href="#path-15"></use>
                    </mask>
                    <g id="Clip-181"></g>
                    <path d="M-4.10949128,36.3670655 C-4.1824735,36.3670655 -4.25330126,36.3667962 -4.32628347,36.3665269 C-4.77225599,36.3643725 -5.13231954,36.0010772 -5.13043439,35.5548354 C-5.12827994,35.1099401 -4.76686984,34.7506845 -4.32251317,34.7506845 C-4.25033888,34.74853 -4.18301211,34.7514924 -4.1140695,34.7512231 C5.82093773,34.7512231 17.2406348,31.3964649 28.0721653,25.2918122 C38.0456835,19.6708349 44.8518811,13.2755999 47.1727695,9.4307028 C47.4032963,9.04909468 47.8998986,8.92575204 48.2820453,9.1565482 C48.6639227,9.38707506 48.7867268,9.8836773 48.5561999,10.265824 C42.9823514,19.4987477 18.7921129,36.3670655 -4.10949128,36.3670655" id="Fill-180" fill="#B97A6C" mask="url(#mask-16)"></path>
                </g>
                <g id="Group-185">
                    <mask id="mask-18" fill="white">
                        <use xlink:href="#path-17"></use>
                    </mask>
                    <g id="Clip-184"></g>
                    <path d="M-9.64606767,25.0238247 C-11.2734903,25.0238247 -12.928113,25.0020108 -14.612898,24.9589217 C-15.0591398,24.9473415 -15.4113935,24.5765057 -15.3998133,24.1305331 C-15.3885024,23.6842913 -15.0144349,23.3269208 -14.5714247,23.3436179 C13.3320197,24.0586281 33.12205,18.8184511 47.708529,6.84936758 C48.0535113,6.56632584 48.5625017,6.61668627 48.8455434,6.96139932 C49.1285852,7.30638168 49.078494,7.81564135 48.7335117,8.09841378 C34.7166171,19.6002496 16.0765281,25.0238247 -9.64606767,25.0238247" id="Fill-183" fill="#B97A6C" mask="url(#mask-18)"></path>
                </g>
                <g id="Group-188">
                    <mask id="mask-20" fill="white">
                        <use xlink:href="#path-19"></use>
                    </mask>
                    <g id="Clip-187"></g>
                    <path d="M-19.3908364,22.1655879 C-19.8147257,22.1655879 -20.1704804,21.8354175 -20.1966031,21.4069499 C-20.2235338,20.9612467 -19.8844762,20.5782921 -19.4390423,20.5513613 C24.9376464,17.8502114 31.5634084,12.7562681 47.5710208,0.448934891 L48.952566,-0.612404284 C49.3067048,-0.88413512 49.8138101,-0.817077659 50.0852716,-0.463208165 C50.3570024,-0.109338672 50.2902143,0.397766547 49.9363448,0.669497383 L48.5558767,1.73002864 C32.270878,14.2503838 25.530122,19.4329291 -19.3410146,22.1639721 C-19.3577116,22.1650493 -19.3741393,22.1655879 -19.3908364,22.1655879" id="Fill-186" fill="#B97A6C" mask="url(#mask-20)"></path>
                </g>
                <g id="Group-191">
                    <mask id="mask-22" fill="white">
                        <use xlink:href="#path-21"></use>
                    </mask>
                    <g id="Clip-190"></g>
                    <path d="M-10.1752022,11.0348304 C-12.183425,11.0348304 -14.1983806,10.9877016 -16.2114509,10.888058 C-16.6571541,10.8659748 -17.0005207,10.4870598 -16.9784375,10.0413566 C-16.9563543,9.59565338 -16.5804016,9.25040172 -16.1314667,9.27437005 C10.2019175,10.577547 38.8098692,2.35506342 44.3597494,-1.609406 C44.7227753,-1.8684794 45.2271874,-1.7847249 45.4867995,-1.42169897 C45.7461422,-1.05840373 45.6618491,-0.553722273 45.2988231,-0.294379561 C40.2835175,3.28767382 15.6077183,11.0348304 -10.1752022,11.0348304" id="Fill-189" fill="#B97A6C" mask="url(#mask-22)"></path>
                </g>
                <g id="Group-194">
                    <mask id="mask-24" fill="white">
                        <use xlink:href="#path-23"></use>
                    </mask>
                    <g id="Clip-193"></g>
                    <path d="M23.9027801,44.8891532 C23.5903839,44.8891532 23.2930689,44.7068323 23.1611085,44.402246 C22.9836351,43.9928993 23.1716114,43.5170337 23.5812275,43.3395603 C33.7604962,38.9275025 43.1687388,32.3327109 50.7879745,24.2680413 C51.0941767,23.9440649 51.6058601,23.9289837 51.9301058,24.2357245 C52.2543516,24.5419266 52.2688941,25.0533408 51.9624227,25.3778558 C44.1942602,33.60007 34.6020808,40.3238597 24.2235249,44.8223651 C24.1190337,44.8676086 24.0099644,44.8891532 23.9027801,44.8891532" id="Fill-192" fill="#B97A6C" mask="url(#mask-24)"></path>
                </g>
            </g>
            <g id="Group-229" transform="translate(0.000000, 0.110416)">
                <path d="M46.7052524,243.391088 C45.7645628,243.391088 44.8922772,243.120703 44.2489026,242.630026 C43.4886487,242.050208 43.0868426,241.211855 43.0868426,240.206262 C43.0868426,239.908678 43.3278724,239.667648 43.6254567,239.667648 C43.9227717,239.667648 44.1640708,239.908678 44.1640708,240.206262 C44.1640708,240.872528 44.412372,241.399831 44.9022415,241.773629 C45.3589863,242.122113 45.9991292,242.313859 46.7052524,242.313859 C48.1832096,242.313859 49.6792104,241.48978 49.6792104,239.914872 C49.6792104,239.617288 49.9202402,239.376258 50.2178245,239.376258 C50.5151395,239.376258 50.7564387,239.617288 50.7564387,239.914872 C50.7564387,242.173012 48.6690396,243.391088 46.7052524,243.391088" id="Fill-196" fill="#60342B"></path>
                <path d="M34.1875903,236.035638 C34.1722398,236.035638 34.1571586,236.0351 34.1418081,236.033753 C33.845301,236.008708 33.6252772,235.748288 33.6500534,235.451781 C33.8089446,233.570671 35.1008106,232.729355 36.3118845,232.729355 L36.3153855,232.729355 C37.5267287,232.730971 38.8220957,233.584405 38.9548641,235.212367 C38.9791018,235.508874 38.75827,235.768755 38.4620322,235.792993 C38.1666023,235.819923 37.9053745,235.596398 37.8814061,235.299891 C37.7976516,234.275178 37.0101978,233.807661 36.314039,233.806584 L36.3116152,233.806584 C35.6143792,233.806584 34.8315035,234.262251 34.7237807,235.542268 C34.6998124,235.823424 34.464438,236.035638 34.1875903,236.035638" id="Fill-198" fill="#C1564D"></path>
                <path d="M60.2185966,235.686913 C60.2185966,228.86725 58.6100254,223.439096 55.7443288,219.729391 L55.7443288,241.256721 C58.6676571,239.332792 60.2185966,238.123872 60.2185966,235.686913" id="Fill-200" fill="#F9BBA6"></path>
                <path d="M31.7758108,229.188021 C31.4114384,229.188021 31.0807293,228.93972 30.9913193,228.569961 C30.8862896,228.136377 31.1526343,227.69983 31.5862187,227.594531 L38.4427767,225.933445 C38.8758225,225.828415 39.3131772,226.095299 39.4179376,226.528614 C39.5232367,226.962198 39.2566227,227.398745 38.8230383,227.504044 L31.9664802,229.16513 C31.9026545,229.18075 31.8388287,229.188021 31.7758108,229.188021" id="Fill-202" fill="#965343"></path>
                <path d="M58.3464815,227.854116 C58.2955825,227.854116 58.2438755,227.849 58.1918992,227.839035 L51.9590563,226.631193 C51.521163,226.546361 51.2348896,226.122203 51.3197214,225.684309 C51.4045531,225.245877 51.8284424,224.96095 52.266605,225.044705 L58.4991786,226.252817 C58.9373412,226.337648 59.2236146,226.761538 59.1387829,227.1997 C59.0639155,227.585887 58.7256659,227.854116 58.3464815,227.854116" id="Fill-204" fill="#965343"></path>
                <path d="M48.7130982,394.426843 L48.7130982,382.291058 L59.5144663,382.291058 L59.5144663,386.009919 C59.5144663,387.10977 60.2639479,388.068503 61.3312118,388.33377 L66.61367,389.646642 C68.8095999,390.192258 70.3511136,392.164125 70.3511136,394.426843 L48.7130982,394.426843 Z" id="Fill-206" fill="#383753"></path>
                <path d="M49.2039642,383.626175 C49.0211047,383.626175 48.8552115,383.500947 48.8113145,383.315394 C48.7165184,382.915473 48.1127319,382.623545 47.7149654,382.689525 C47.4946722,382.722111 47.2867671,382.576685 47.25068,382.356661 C47.2143235,382.136637 47.3632504,381.928463 47.5832742,381.892376 C48.3648034,381.764455 49.3927485,382.264828 49.5974218,383.129034 C49.6488595,383.346095 49.5144753,383.563965 49.2974138,383.615403 C49.2661741,383.622674 49.2349345,383.626175 49.2039642,383.626175" id="Fill-208" fill="#383753"></path>
                <path d="M24.0330978,394.426843 L24.0330978,382.291058 L34.8344659,382.291058 L34.8344659,386.009919 C34.8344659,387.10977 35.5839475,388.068503 36.6512114,388.33377 L41.9336697,389.646642 C44.1295995,390.192258 45.6711132,392.164125 45.6711132,394.426843 L24.0330978,394.426843 Z" id="Fill-210" fill="#383753"></path>
                <path d="M24.5239638,383.626175 C24.3411043,383.626175 24.1752112,383.500947 24.1313141,383.315394 C24.036518,382.915473 23.4330009,382.623545 23.034965,382.689525 C22.8149412,382.722111 22.6067668,382.576685 22.5706796,382.356661 C22.5343232,382.136637 22.68325,381.928463 22.9032739,381.892376 C23.6853416,381.764455 24.7127481,382.264828 24.9174215,383.129034 C24.9688591,383.346095 24.8344749,383.563965 24.6174134,383.615403 C24.5861738,383.622674 24.5549342,383.626175 24.5239638,383.626175" id="Fill-212" fill="#383753"></path>
                <path d="M53.0390854,236.035638 C53.0237349,236.035638 53.0086537,236.0351 52.9933032,236.033753 C52.6967961,236.008708 52.4767723,235.748288 52.5015485,235.451781 C52.6604397,233.570671 53.9523057,232.729355 55.1633796,232.729355 L55.1668806,232.729355 C56.3782238,232.730971 57.6735909,233.584405 57.8063592,235.212367 C57.8305969,235.508874 57.6097651,235.768755 57.3135273,235.792993 C57.018636,235.819923 56.7571389,235.596398 56.7329012,235.299891 C56.6491467,234.275178 55.8616929,233.807661 55.1655341,233.806584 L55.1631103,233.806584 C54.4658743,233.806584 53.6829986,234.262251 53.5752758,235.542268 C53.5513075,235.823424 53.3159331,236.035638 53.0390854,236.035638" id="Fill-214" fill="#C1564D"></path>
                <path d="M21.7066348,286.515714 C21.544512,286.515714 21.3845436,286.442732 21.2784366,286.304308 C21.0977315,286.068126 21.1427058,285.730145 21.3788881,285.549171 C22.1647262,284.948078 22.9780335,284.553812 23.5990556,284.277503 C23.8699785,284.156853 24.1888381,284.27858 24.3100263,284.55058 C24.4309452,284.822581 24.3086798,285.140901 24.0369489,285.26182 C23.4700575,285.513892 22.7300017,285.871801 22.0335736,286.405029 C21.9358151,286.479627 21.820821,286.515714 21.7066348,286.515714" id="Fill-216" fill="#61C092"></path>
                <path d="M1.84273365,317.32245 C3.03872636,317.297674 11.5816853,317.041024 11.4109446,314.962512 C10.9337325,309.158137 12.5646561,310.157805 1.2128244,311.244998 C-0.556523066,311.414392 0.396554665,313.307082 0.598804277,316.19567 C0.644047865,316.842814 1.19451152,317.335916 1.84273365,317.32245" id="Fill-218" fill="#C1E3D2"></path>
                <path d="M94.144986,283.847635 C93.7175956,282.667801 90.5879781,274.266228 88.6777831,275.105389 C83.3438872,277.448899 83.7394993,275.507195 88.6042622,286.431098 C89.3623616,288.133657 90.8322396,286.577332 93.4989183,285.446242 C94.0957028,285.192555 94.37659,284.48697 94.144986,283.847635" id="Fill-220" fill="#C1E3D2"></path>
                <path d="M103.555221,280.610941 C160.456844,260.25752 172.732937,258.486288 164.292853,250.960771 L115.371069,207.340835 C112.389301,204.681966 107.646804,206.378062 107.027667,210.325296 L96.8704813,275.077489 C96.2769285,278.861253 99.9491997,281.900922 103.555221,280.610941" id="Fill-222" fill="#E26BA8"></path>
                <g id="Group-226" transform="translate(115.802041, 0.000000)">
                    <mask id="mask-26" fill="white">
                        <use xlink:href="#path-25"></use>
                    </mask>
                    <g id="Clip-225"></g>
                    <path d="M6.35691266,10.5830139 C1.82905285,16.1969891 2.18103719,22.0247942 7.34877061,26.993779 C10.947521,30.4541056 15.1702559,32.2040629 19.6205553,32.2046016 C22.9473056,32.2048709 26.4003609,31.2272862 29.8186755,29.2559584 C32.0035638,27.9956013 33.4793666,25.9577547 34.2048798,23.1984344 C35.6128172,17.8440712 33.8019965,11.4299846 32.5674928,9.33962315 C29.783127,4.62486422 25.6438773,3.37662594 22.6615708,3.15983375 C16.9242529,2.74025333 10.2190454,5.79473415 6.35691266,10.5830139 Z M19.640484,35.1416645 C14.4250833,35.1419338 9.44263311,33.1170139 5.29557349,29.1291148 C-0.948041689,23.1259908 -1.413135,15.4975987 4.0508362,8.72317926 L4.05110551,8.72317926 C8.55688214,3.13667334 16.1214485,-0.286219557 22.8764778,0.204996544 C28.1651301,0.589836351 32.398368,3.22769913 35.1183694,7.83311938 C36.8454357,10.7577942 38.6602961,17.9035881 37.0700378,23.9516863 C36.1360809,27.5041159 34.1941076,30.1522124 31.2987872,31.8221855 C27.4474268,34.0431609 23.4805336,35.1413952 19.640484,35.1416645 Z" id="Fill-224" fill="#ECE9F4" mask="url(#mask-26)"></path>
                </g>
                <path d="M133.573615,13.2700522 C128.022927,9.50648581 121.630385,16.8752659 128.727973,22.2573678 C130.202429,23.3741842 134.220221,25.62613 134.322558,25.8003716 C134.632261,26.32956 135.331652,26.4429383 135.72484,26.1687837 C149.92998,16.2747112 140.428288,4.40069302 133.573615,13.2700522" id="Fill-227" fill="#ED3464"></path>
            </g>
        </g>
    </g>
</svg>